<?xml version="1.0" encoding="utf-8"?>
<!-- Generator: Adobe Illustrator 19.0.1, SVG Export Plug-In . SVG Version: 6.00 Build 0)  -->
<svg version="1.1" xmlns="http://www.w3.org/2000/svg" xmlns:xlink="http://www.w3.org/1999/xlink" x="0px" y="0px"
	 viewBox="0 0 1140 984" style="enable-background:new 0 0 1140 984;" xml:space="preserve">
<style type="text/css">
	.st0{fill:#999999;}
	.st1{fill:#B3B3B3;}
	.st2{fill:#808080;}
	.st3{opacity:0.5;fill:url(#SVGID_1_);}
</style>
<g id="layer4">
	<g>
		<g>
			<g>
				<path class="st0" d="M806.5,679.4H981c0.6,0,1.1-0.5,1.1-1.1c0-0.6-0.5-1.1-1.1-1.1H806.9L645,538.1c-0.5-0.4-1.2-0.3-1.6,0.1
					c-0.4,0.5-0.3,1.2,0.1,1.6l162.2,139.3C806,679.3,806.3,679.4,806.5,679.4z"/>
			</g>
			<circle class="st0" cx="981" cy="677.1" r="4.1"/>
		</g>
	</g>
</g>
<g id="layer3">
	<g>
		<g>
			<g>
				<path class="st1" d="M330.4,704.2H147.5c-0.6,0-1.2-0.5-1.2-1.2c0-0.6,0.5-1.2,1.2-1.2h182.5l169.7-145.8
					c0.5-0.4,1.2-0.4,1.6,0.1c0.4,0.5,0.4,1.2-0.1,1.6L331.1,703.9C330.9,704.1,330.6,704.2,330.4,704.2z"/>
			</g>
			<circle class="st1" cx="147.5" cy="701.9" r="4.3"/>
		</g>
	</g>
</g>
<g id="layer2">
	<g>
		<g>
			<path class="st0" d="M788.4,278.1h143.3c0.5,0,0.9,0.4,0.9,0.9c0,0.5-0.4,0.9-0.9,0.9h-143l-133,114.2c-0.4,0.3-1,0.3-1.3-0.1
				c-0.3-0.4-0.3-1,0.1-1.3l133.3-114.5C788,278.2,788.2,278.1,788.4,278.1z"/>
		</g>
		<circle class="st0" cx="931.7" cy="279.9" r="3.4"/>
	</g>
</g>
<g id="layer1">
	<g>
		<g>
			<path class="st0" d="M308.9,333.1H165.6c-0.5,0-0.9,0.4-0.9,0.9c0,0.5,0.4,0.9,0.9,0.9h143l133,114.2c0.4,0.3,0.9,0.3,1.3-0.1
				c0.3-0.4,0.3-1-0.1-1.3L309.5,333.3C309.4,333.2,309.2,333.1,308.9,333.1z"/>
		</g>
		<circle class="st0" cx="165.6" cy="334.9" r="3.4"/>
	</g>
</g>
<g id="bgring">
	<g id="bg">
		<g id="AboutForm">
			<g>
				<g>
					<path class="st2" d="M685.2,501.1l14.8,2.6c1.7-8.4,2.6-17.1,2.6-25.7l-15.1-1.1C687.7,485,686.9,493.2,685.2,501.1z"/>
					<path class="st2" d="M593.6,362.3c28.5,5.8,54.9,22.2,72.9,47.8c0.8,1.2,1.6,2.4,2.4,3.6c8.1,12.5,13.4,26,16.3,39.8l15-1.9
						c-3.2-16.2-9.4-32-18.9-46.5c-0.8-1.2-1.6-2.4-2.4-3.6c-20.3-29.1-50.3-47.6-82.6-54L593.6,362.3z"/>
					<path class="st2" d="M463.8,557l12.4-8.6c-0.9-1.2-1.7-2.3-2.5-3.5c-17.9-25.7-24.2-56.1-19.8-84.9
						c4.7-30.8,21.4-59.7,48.9-78.9l0,0l-8.6-12.4l0,0c-30.9,21.6-49.8,54-55.1,88.6c-5,32.6,2,67.1,22.3,96.2
						C462.1,554.7,462.9,555.9,463.8,557z"/>
					<path class="st2" d="M549.9,608.6c32.6,5,67.1-2,96.2-22.3l0,0l-8.6-12.4l0,0c-25.7,18-56.1,24.2-84.9,19.8
						c-13.9-2.1-27.4-6.7-39.8-13.6l-7.3,13.2C519.3,601.1,534.4,606.2,549.9,608.6z"/>
					<path class="st2" d="M636.3,572.4c52.3-36.5,65.1-108.7,28.6-161c-36.5-52.3-108.7-65.1-161-28.6
						c-52.3,36.5-65.1,108.7-28.6,161C511.7,596,584,608.9,636.3,572.4z M504.4,383.4c51.9-36.3,123.6-23.5,159.8,28.4
						c36.2,51.9,23.5,123.6-28.4,159.8c-51.9,36.2-123.6,23.5-159.8-28.4C439.7,491.3,452.5,419.7,504.4,383.4z"/>
					<path class="st2" d="M706.6,466.9l2.6-0.2c-1.1-14.6-4.5-28.8-10.1-42.3l-2.4,1C702.2,438.6,705.5,452.6,706.6,466.9z"/>
					<path class="st2" d="M640.1,356.8c-12.6-7.3-26.2-12.6-40.5-15.7l-0.6,2.5c14,3,27.4,8.2,39.8,15.4L640.1,356.8z"/>
					<path class="st2" d="M664.7,374.9c-1.1-1-2.2-2-3.3-2.9l-1.7,2c1.1,1,2.2,1.9,3.2,2.9L664.7,374.9z"/>
					<path class="st2" d="M697.4,420.4c-3.6-7.9-7.9-15.6-12.9-22.8l-2.1,1.5c4.9,7,9.2,14.6,12.7,22.3L697.4,420.4z"/>
					<path class="st2" d="M705.7,496.8l2.6,0.4c0.2-1.4,0.4-2.9,0.5-4.3l-2.6-0.3C706,494,705.9,495.4,705.7,496.8z"/>
					<path class="st2" d="M505.9,601.5c13,6.7,26.8,11.3,41.3,13.7l0.4-2.6c-14.2-2.4-27.8-6.9-40.5-13.4L505.9,601.5z"/>
					<path class="st2" d="M551.5,615.9c8.6,1.1,17.4,1.5,26.1,1.1l-0.1-2.6c-8.5,0.5-17.2,0.1-25.6-1L551.5,615.9z"/>
					<path class="st2" d="M480.5,584.6c1.1,0.9,2.3,1.9,3.4,2.7l1.6-2c-1.1-0.9-2.2-1.8-3.3-2.7L480.5,584.6z"/>
					<path class="st2" d="M620.1,607.8c1.3-0.5,2.7-1.1,4-1.6l-1-2.4c-1.3,0.6-2.7,1.1-4,1.6L620.1,607.8z"/>
					<path class="st2" d="M679.8,559.5l2.1,1.5c5.2-7,9.8-14.5,13.6-22.3l-2.3-1.1C689.4,545.3,684.9,552.7,679.8,559.5z"/>
					<path class="st2" d="M595.3,340.3c-8.6-1.6-17.3-2.3-26-2.3l0,2.6c8.5-0.1,17.1,0.7,25.6,2.3L595.3,340.3z"/>
					<path class="st2" d="M648.5,589.8c-0.9,0.6-1.8,1.2-2.7,1.8l1.4,2.2c0.9-0.6,1.8-1.2,2.8-1.9c11.1-7.7,21-17,29.3-27.5l-2-1.6
						C669,573.2,659.4,582.2,648.5,589.8z"/>
					<path class="st2" d="M526.3,345c-1.4,0.4-2.8,0.9-4.1,1.4l0.9,2.4c1.3-0.5,2.7-1,4-1.4L526.3,345z"/>
					<path class="st2" d="M454.1,550.5c-4.6-7.2-8.5-15-11.6-22.9l-2.4,0.9c3.2,8.1,7.2,15.9,11.8,23.3L454.1,550.5z"/>
					<path class="st2" d="M433.2,481.6l-2.6,0.1c0.4,14.6,3.1,29,8,42.7l2.4-0.9C436.2,510.1,433.6,496,433.2,481.6z"/>
					<path class="st2" d="M491.7,365.2L491.7,365.2c2.7-1.9,5.5-3.7,8.3-5.4l-1.3-2.2c-2.9,1.7-5.7,3.5-8.4,5.5c0,0,0,0,0,0
						c-9.2,6.4-17.6,13.9-25,22.3l1.9,1.7C474.4,378.9,482.6,371.6,491.7,365.2z"/>
					<path class="st2" d="M435.5,451.8l-2.5-0.5c-0.3,1.4-0.5,2.9-0.8,4.3l2.6,0.4C435,454.6,435.3,453.2,435.5,451.8z"/>
					<path class="st2" d="M464.4,390.4l-2-1.7c-5.5,6.7-10.5,14-14.7,21.6l2.3,1.2C454.1,404.1,458.9,397,464.4,390.4z"/>
					<path class="st2" d="M653.5,597.1c65.9-46,82.1-137.1,36.1-203c-46-65.9-137.1-82.1-203-36.1c-65.9,46-82.1,137.1-36.1,203
						C496.5,626.9,587.6,643.1,653.5,597.1z M487.2,358.9c65.4-45.7,155.8-29.6,201.5,35.8c45.7,65.4,29.6,155.8-35.8,201.5
						c-65.4,45.7-155.8,29.6-201.5-35.8C405.8,494.9,421.8,404.6,487.2,358.9z"/>
					<path class="st2" d="M732.5,445.3l3.4-0.7c-0.6-2.9-1.2-5.7-1.9-8.5l-3.3,0.8C731.3,439.7,731.9,442.5,732.5,445.3z"/>
					<path class="st2" d="M686.3,359.6l2.4-2.5c-2.1-2-4.2-4-6.4-6l-2.3,2.6C682.1,355.6,684.2,357.6,686.3,359.6z"/>
					<path class="st2" d="M613.7,314.2c-2.8-0.7-5.7-1.4-8.5-2l-0.7,3.4c2.8,0.6,5.6,1.3,8.3,2L613.7,314.2z"/>
					<path class="st2" d="M527.2,314c-2.8,0.7-5.6,1.5-8.4,2.4l1,3.3c2.7-0.9,5.5-1.7,8.2-2.4L527.2,314z"/>
					<path class="st2" d="M673.5,348.2l2.2-2.7c-13.7-10.9-28.9-19.6-45.4-25.9l-1.2,3.2c4.4,1.7,8.8,3.6,13,5.6l0,0
						c2.6,1.2,5.1,2.5,7.6,3.9l0,0C658,336.9,666,342.2,673.5,348.2z"/>
					<path class="st2" d="M422.4,402.6L422.4,402.6c1.3-2.5,2.7-5.1,4.1-7.5l0,0c2.8-4.9,5.9-9.7,9.3-14.4l0,0
						c4-5.5,8.3-10.8,12.8-15.7c1.9-2,3.8-4,5.8-6l0,0c4.1-4,8.4-7.7,12.9-11.3l0,0c2.6-2,5.3-4,8-5.9c11.4-7.9,23.7-14.4,36.5-19.3
						l-1.2-3.2c-9.1,3.4-17.9,7.7-26.3,12.6l0,0c-2.5,1.5-5,3-7.4,4.6l0,0c-1.2,0.8-2.4,1.6-3.5,2.4c-1.2,0.8-2.4,1.7-3.6,2.6l0,0
						c-8.5,6.3-16.4,13.4-23.6,21.1c0,0-0.1,0.1-0.1,0.1l0,0c-2,2.1-3.9,4.3-5.8,6.6h0c-11.2,13.4-20.2,28.5-26.8,44.8l3.2,1.3
						C418.3,411.1,420.3,406.8,422.4,402.6z"/>
					<path class="st2" d="M731.7,513.3L731.7,513.3c-0.6,2.8-1.3,5.6-2,8.3l0,0c-0.4,1.2-0.7,2.5-1.1,3.7c-0.1,0.2-0.1,0.5-0.2,0.7
						c-0.3,1-0.6,2-0.9,2.9c-2.4,7.4-5.4,14.7-8.9,21.7l0,0c-1.3,2.6-2.6,5.1-4,7.6l0,0c-1.4,2.5-2.9,5-4.4,7.4l0,0
						c-3,4.8-6.3,9.5-9.8,14h0c-1.9,2.4-3.8,4.7-5.8,7c-0.1,0.2-0.3,0.3-0.4,0.5c-2.3,2.6-4.7,5.1-7.1,7.6l0,0c-2,2-4.1,4-6.2,5.9h0
						c-4.2,3.8-8.7,7.4-13.3,10.8l0,0c-0.9,0.7-1.8,1.3-2.7,1.9c-4.6,3.3-9.4,6.2-14.4,9c-0.5,0.3-1,0.6-1.5,0.8
						c-5.2,2.8-10.6,5.4-16,7.6l0,0c-1,0.4-2,0.8-3,1.2c-13.3,5.2-27.2,8.6-41.2,10.2l0,0c-17.1,1.9-34.2,1.2-51.1-2.2l-0.7,3.4
						c15.4,3.1,31,4,46.6,2.8v0c7.7-0.6,15.3-1.8,22.8-3.4l0,0c2.9-0.6,5.7-1.3,8.5-2.1l0,0c2.8-0.8,5.6-1.6,8.4-2.5l0,0
						c9.3-3.1,18.3-7,26.9-11.6l0,0c0.2-0.1,0.4-0.2,0.6-0.3c0.5-0.3,1-0.6,1.6-0.9c1.8-1,3.7-2,5.5-3.1l0,0
						c2.5-1.5,4.9-3.1,7.4-4.7l0,0c0.7-0.4,1.3-0.9,1.9-1.3h0c10.5-7.3,20-15.8,28.6-25.2l0,0c0.4-0.5,0.8-0.9,1.2-1.4
						c0.2-0.2,0.3-0.4,0.5-0.6c11-12.5,20-26.5,26.9-41.8l0,0c2.4-5.3,4.5-10.7,6.4-16.3l0,0c0.1-0.2,0.2-0.5,0.2-0.7
						c0.3-1,0.7-2.1,1-3.1c0.1-0.2,0.1-0.4,0.2-0.6c2.4-7.9,4.2-15.9,5.4-24h0c2-13.4,2.4-26.9,1.1-40.4l-3.4,0.3
						C736.5,479.3,735.4,496.5,731.7,513.3z"/>
					<path class="st2" d="M407.1,448.3l-3.4-0.6c-1.7,9.7-2.6,19.4-2.7,29.1h0c0,2.9,0.1,5.8,0.2,8.7h0c0.2,4.8,0.6,9.6,1.3,14.4
						l3.4-0.5C403.7,482.5,404.1,465.2,407.1,448.3z"/>
					<path class="st2" d="M411,431.6l-3.3-1c-0.8,2.8-1.5,5.6-2.2,8.4l3.4,0.8C409.5,437.2,410.2,434.4,411,431.6z"/>
					<path class="st2" d="M409.1,516.3l-3.4,0.8c0.7,2.8,1.4,5.7,2.3,8.5l3.3-1C410.5,521.8,409.7,519,409.1,516.3z"/>
					<path class="st2" d="M596.6,310.6c-9.7-1.5-19.4-2.2-29.1-2.1v0c-2.9,0-5.9,0.2-8.7,0.4v0c-4.8,0.3-9.6,0.8-14.4,1.6l0.5,3.4
						c16.9-2.6,34.2-2.5,51.1,0.2L596.6,310.6z"/>
					<path class="st2" d="M492.2,623.7c-2.5-1.3-5-2.8-7.5-4.2l0,0c-4.9-2.9-9.6-6.1-14.2-9.6l0,0c-5.4-4-10.5-8.4-15.3-13l0,0
						c-2-2-4.1-4-6-6.1l0,0c-3.9-4.1-7.6-8.5-11-13.1l0,0c-1.3-1.7-2.6-3.5-3.9-5.4c-8.6-12.3-15.4-25.6-20.4-39.6l-3.3,1.2
						c5.1,14.3,12.1,27.9,20.8,40.5c0.2,0.3,0.4,0.6,0.7,0.9l0,0c7.8,11.1,17,21.1,27.2,30v0c13.2,11.5,28.1,20.8,44.3,27.7l1.4-3.2
						C500.6,627.9,496.3,625.9,492.2,623.7L492.2,623.7z"/>
					<path class="st2" d="M709.2,381.5L709.2,381.5c-0.2-0.2-0.4-0.5-0.5-0.7c-2.6-3.7-5.3-7.3-8.2-10.8l-2.7,2.2
						c2.8,3.4,5.5,7,8,10.6c9.9,14.2,17.4,29.6,22.5,45.9l3.3-1c-4.2-13.6-10.1-26.6-17.7-38.8l0,0
						C712.5,386.4,710.9,383.9,709.2,381.5z"/>
					<path class="st2" d="M631.1,565c-48.2,33.7-114.8,21.8-148.5-26.4c-33.7-48.2-21.8-114.8,26.4-148.5
						c48.2-33.7,114.9-21.8,148.5,26.4C691.2,464.7,679.3,531.3,631.1,565z M515.9,400c-42.7,29.8-53.2,88.9-23.4,131.6
						c29.8,42.7,88.9,53.2,131.6,23.4c42.8-29.8,53.3-88.9,23.4-131.6C617.7,380.7,558.7,370.2,515.9,400z"/>
					<g>
						<path class="st2" d="M522.6,413.5c2.4-1.7,2.9-5.1,1.2-7.4c-1.7-2.4-5.1-2.9-7.5-1.2c-2.4,1.7-2.9,5.1-1.2,7.5
							C516.8,414.8,520.2,415.3,522.6,413.5z"/>
						<path class="st2" d="M510.3,424.8c2-2.2,1.8-5.5-0.4-7.5c-2.2-2-5.6-1.8-7.5,0.4c-2,2.2-1.8,5.6,0.4,7.5
							C504.9,427.2,508.3,427,510.3,424.8z"/>
						<path class="st2" d="M493.3,440.4c2.6,1.5,5.8,0.6,7.3-2c1.5-2.6,0.6-5.8-2-7.3c-2.6-1.5-5.8-0.6-7.3,2
							C489.9,435.6,490.8,438.9,493.3,440.4z"/>
						<path class="st2" d="M486.1,492.6c2.9-0.3,5.1-2.9,4.8-5.9c-0.3-2.9-2.9-5.1-5.9-4.8c-2.9,0.3-5.1,2.9-4.8,5.9
							C480.6,490.7,483.2,492.9,486.1,492.6z"/>
						<path class="st2" d="M494.5,502.9c-0.9-2.8-3.9-4.3-6.7-3.4c-2.8,0.9-4.3,3.9-3.4,6.7c0.9,2.8,3.9,4.3,6.7,3.4
							C493.9,508.8,495.4,505.8,494.5,502.9z"/>
						<path class="st2" d="M503.8,531.1c-2.2,2-2.4,5.3-0.4,7.5c2,2.2,5.4,2.4,7.5,0.4c2.2-2,2.4-5.4,0.4-7.5
							C509.4,529.3,506,529.1,503.8,531.1z"/>
						<path class="st2" d="M523.9,542.5c-2.4-1.7-5.7-1.2-7.5,1.2c-1.7,2.4-1.2,5.7,1.2,7.4c2.4,1.7,5.7,1.2,7.5-1.2
							C526.8,547.6,526.3,544.2,523.9,542.5z"/>
						<path class="st2" d="M587.4,555.3c-2.9,0.6-4.7,3.4-4.1,6.3c0.6,2.9,3.4,4.7,6.3,4.1c2.9-0.6,4.7-3.4,4.1-6.3
							C593.2,556.5,590.3,554.7,587.4,555.3z"/>
						<path class="st2" d="M603.2,550c-2.7,1.2-3.9,4.3-2.7,7.1c1.2,2.7,4.3,3.9,7,2.7c2.7-1.2,3.9-4.4,2.7-7
							C609.1,550,605.9,548.8,603.2,550z"/>
						<path class="st2" d="M617.6,541.5c-2.4,1.7-2.9,5.1-1.2,7.4c1.7,2.4,5.1,2.9,7.5,1.2c2.4-1.7,2.9-5.1,1.2-7.5
							C623.3,540.3,620,539.8,617.6,541.5z"/>
						<path class="st2" d="M629.8,530.3c-2,2.2-1.8,5.6,0.4,7.5c2.2,2,5.6,1.8,7.5-0.4c2-2.2,1.8-5.6-0.4-7.5
							C635.2,527.9,631.8,528.1,629.8,530.3z"/>
						<path class="st2" d="M652.8,498c-2.8-0.9-5.8,0.6-6.7,3.4c-0.9,2.8,0.6,5.8,3.4,6.7c2.8,0.9,5.8-0.6,6.7-3.4
							C657.2,501.9,655.6,498.9,652.8,498z"/>
						<path class="st2" d="M655.3,480.3c-2.9-0.3-5.6,1.8-5.9,4.8c-0.3,2.9,1.8,5.6,4.7,5.9c2.9,0.3,5.6-1.8,5.9-4.8
							C660.3,483.2,658.2,480.6,655.3,480.3z"/>
						<path class="st2" d="M654,462.5c-2.9,0.3-5.1,2.9-4.8,5.9c0.3,2.9,2.9,5.1,5.9,4.8c2.9-0.3,5.1-2.9,4.8-5.9
							C659.6,464.3,656.9,462.2,654,462.5z"/>
						<path class="st2" d="M638.7,437c1.5,2.6,4.7,3.4,7.3,2c2.6-1.5,3.4-4.7,2-7.3c-1.5-2.6-4.7-3.4-7.3-2
							C638.1,431.1,637.2,434.4,638.7,437z"/>
						<path class="st2" d="M636.3,424c2.2-2,2.4-5.4,0.4-7.5c-2-2.2-5.4-2.4-7.5-0.4c-2.2,2-2.4,5.4-0.4,7.5
							C630.7,425.8,634.1,426,636.3,424z"/>
						<path class="st2" d="M608.8,401.7c1.2-2.7,0-5.8-2.7-7.1c-2.7-1.2-5.9,0-7,2.7c-1.2,2.7,0,5.9,2.7,7.1
							C604.4,405.6,607.6,404.4,608.8,401.7z"/>
						<path class="st2" d="M592.2,395.3c0.6-2.9-1.2-5.7-4.1-6.3c-2.9-0.6-5.7,1.2-6.3,4.1c-0.6,2.9,1.2,5.7,4.1,6.3
							C588.7,400,591.6,398.2,592.2,395.3z"/>
					</g>
				</g>
			</g>
		</g>
	</g>
	<g id="background">
		<g>
			<linearGradient id="SVGID_1_" gradientUnits="userSpaceOnUse" x1="1746.7722" y1="487.9686" x2="1748.3594" y2="487.9632">
				<stop  offset="2.432432e-002" style="stop-color:#000000"/>
				<stop  offset="0.8784" style="stop-color:#3E3E3E"/>
			</linearGradient>
			<rect y="0" class="st3" width="1140" height="984"/>
			<g>
				<rect x="1126.4" y="0.7" class="st2" width="2.3" height="982.7"/>
				<polygon class="st2" points="11.3,0 11.3,982.7 13.6,984 13.6,1.3 				"/>
			</g>
		</g>
	</g>
</g>
<g id="text4">
	<g>
		<path class="st1" d="M804.1,667.2h-3.7l5-13.3h3.8l5,13.3h-3.7l-0.9-2.4H805L804.1,667.2z M805.8,662.4h3l-1.5-4.5L805.8,662.4z"
			/>
		<path class="st1" d="M818.9,664.4h7.3v2.8h-10.9v-14h3.6V664.4z"/>
		<path class="st1" d="M831.2,664.4h7.3v2.8h-10.9v-14h3.6V664.4z"/>
		<path class="st1" d="M844.3,653.2h3.8l3.3,6.8l3.3-6.8h3.8l-5.3,10.3v3.7h-3.6v-3.7L844.3,653.2z"/>
		<path class="st1" d="M871.9,663.4c0,1.4-0.3,2.4-1,3c-0.6,0.6-1.6,1-3,1h-5c-1.4,0-2.4-0.3-3-1c-0.6-0.6-1-1.7-1-3V657
			c0-1.4,0.3-2.4,1-3c0.6-0.6,1.7-1,3-1h5c1.4,0,2.4,0.3,3,1c0.6,0.6,1,1.7,1,3V663.4z M868.3,657c0-0.8-0.4-1.2-1.2-1.2h-3.4
			c-0.8,0-1.2,0.4-1.2,1.2v6.4c0,0.8,0.4,1.2,1.2,1.2h3.4c0.8,0,1.2-0.4,1.2-1.2V657z"/>
		<path class="st1" d="M882.9,653.2h3.6v10.2c0,1.4-0.3,2.4-1,3c-0.6,0.6-1.6,1-3,1h-4.6c-1.4,0-2.4-0.3-3-1c-0.6-0.6-1-1.7-1-3
			v-10.2h3.6v10.2c0,0.8,0.4,1.2,1.2,1.2h3c0.8,0,1.2-0.4,1.2-1.2V653.2z"/>
		<path class="st1" d="M888.9,653.2h8.4c1.4,0,2.4,0.3,3.1,1c0.6,0.6,0.9,1.6,0.9,3v1.8c0,1.1-0.2,2-0.5,2.6c-0.4,0.6-1,1-1.8,1.2
			l2.5,4.4h-3.9l-2.3-4.2h-2.8v4.2h-3.6V653.2z M897.7,657.2c0-0.8-0.4-1.2-1.2-1.2h-4v4.2h4c0.8,0,1.2-0.4,1.2-1.2V657.2z"/>
		<path class="st1" d="M917.1,653.2c1.5,0,2.7,0.4,3.4,1.2c0.8,0.8,1.2,1.9,1.2,3.4v4.8c0,1.5-0.4,2.6-1.2,3.4
			c-0.8,0.8-1.9,1.2-3.4,1.2h-7.8v-14H917.1z M918.1,657.8c0-1.2-0.6-1.8-1.8-1.8h-3.4v8.4h3.4c1.2,0,1.8-0.6,1.8-1.8V657.8z"/>
		<path class="st1" d="M926.2,667.2h-3.9l5.3-14h4l5.3,14H933l-0.9-2.5h-5L926.2,667.2z M928,662.1h3.2l-1.6-4.7L928,662.1z"/>
		<path class="st1" d="M944.7,667.2h-3.6V656h-4.2v-2.8h12v2.8h-4.2V667.2z"/>
		<path class="st1" d="M952.8,667.2h-3.9l5.3-14h4l5.3,14h-3.9l-0.9-2.5h-5L952.8,667.2z M954.6,662.1h3.2l-1.6-4.7L954.6,662.1z"/>
		<path class="st1" d="M977.1,667.2h-7.2v-2.8h1.8V656h-1.8v-2.8h7.2v2.8h-1.8v8.4h1.8V667.2z"/>
		<path class="st1" d="M978.5,664.3c3.7,0.2,6.1,0.3,7.4,0.3c0.3,0,0.5-0.1,0.7-0.3c0.2-0.2,0.3-0.4,0.3-0.7v-1.8h-4.6
			c-1.4,0-2.4-0.3-3-0.9c-0.6-0.6-1-1.7-1-3.1v-0.6c0-1.4,0.3-2.4,1-3c0.6-0.6,1.7-1,3-1h7v2.8h-6.2c-0.8,0-1.2,0.4-1.2,1.2v0.4
			c0,0.8,0.4,1.2,1.2,1.2h3.6c1.3,0,2.3,0.3,2.9,0.9c0.6,0.6,0.9,1.6,0.9,2.9v1c0,1.3-0.3,2.3-0.9,2.9s-1.6,0.9-2.9,0.9
			c-0.7,0-1.4,0-2.2,0l-1.8-0.1c-1.4-0.1-2.8-0.2-4.2-0.3V664.3z"/>
		<path class="st1" d="M998.3,653.2h8.4c1.4,0,2.4,0.3,3.1,1c0.6,0.6,0.9,1.6,0.9,3v2c0,1.4-0.3,2.4-0.9,3c-0.6,0.6-1.7,1-3.1,1
			h-4.8v4h-3.6V653.2z M1007.1,657.2c0-0.8-0.4-1.2-1.2-1.2h-4v4.4h4c0.8,0,1.2-0.4,1.2-1.2V657.2z"/>
		<path class="st1" d="M1012.5,653.2h8.4c1.4,0,2.4,0.3,3.1,1c0.6,0.6,0.9,1.6,0.9,3v1.8c0,1.1-0.2,2-0.5,2.6c-0.4,0.6-1,1-1.8,1.2
			l2.5,4.4h-3.9l-2.3-4.2h-2.8v4.2h-3.6V653.2z M1021.3,657.2c0-0.8-0.4-1.2-1.2-1.2h-4v4.2h4c0.8,0,1.2-0.4,1.2-1.2V657.2z"/>
		<path class="st1" d="M1039.5,663.4c0,1.4-0.3,2.4-1,3c-0.6,0.6-1.6,1-3,1h-5c-1.4,0-2.4-0.3-3-1c-0.6-0.6-1-1.7-1-3V657
			c0-1.4,0.3-2.4,1-3c0.6-0.6,1.7-1,3-1h5c1.4,0,2.4,0.3,3,1c0.6,0.6,1,1.7,1,3V663.4z M1035.9,657c0-0.8-0.4-1.2-1.2-1.2h-3.4
			c-0.8,0-1.2,0.4-1.2,1.2v6.4c0,0.8,0.4,1.2,1.2,1.2h3.4c0.8,0,1.2-0.4,1.2-1.2V657z"/>
		<path class="st1" d="M1048.3,667.2h-3.6V656h-4.2v-2.8h12v2.8h-4.2V667.2z"/>
		<path class="st1" d="M1065,667.2h-11.1v-14h11.1v2.8h-7.5v2.7h5.9v2.8h-5.9v2.9h7.5V667.2z"/>
		<path class="st1" d="M1077.4,667c-3,0.3-5.4,0.4-7.4,0.4c-1.3,0-2.3-0.3-2.9-0.9s-0.9-1.6-0.9-2.9v-6.4c0-1.4,0.3-2.4,1-3
			c0.6-0.6,1.7-1,3-1h7.2v2.8h-6.4c-0.8,0-1.2,0.4-1.2,1.2v6.4c0,0.3,0.1,0.5,0.3,0.7s0.4,0.3,0.7,0.3c0.3,0,0.6,0,0.9,0
			c0.3,0,0.7,0,1,0c0.4,0,0.7,0,1.1,0c0.4,0,0.8,0,1.4-0.1s1.3-0.1,2.2-0.1V667z"/>
		<path class="st1" d="M1085.8,667.2h-3.6V656h-4.2v-2.8h12v2.8h-4.2V667.2z"/>
		<path class="st1" d="M1102.5,667.2h-11.1v-14h11.1v2.8h-7.5v2.7h5.9v2.8h-5.9v2.9h7.5V667.2z"/>
		<path class="st1" d="M1111.9,653.2c1.5,0,2.7,0.4,3.4,1.2c0.8,0.8,1.2,1.9,1.2,3.4v4.8c0,1.5-0.4,2.6-1.2,3.4
			c-0.8,0.8-1.9,1.2-3.4,1.2h-7.8v-14H1111.9z M1112.9,657.8c0-1.2-0.6-1.8-1.8-1.8h-3.4v8.4h3.4c1.2,0,1.8-0.6,1.8-1.8V657.8z"/>
	</g>
	<g>
		<path class="st0" d="M805.2,703h-3.1v-11.9h9.4v2.4h-6.4v2.8h5v2.4h-5V703z"/>
		<path class="st0" d="M822.2,703h-9.4v-11.9h9.4v2.4h-6.4v2.3h5v2.4h-5v2.5h6.4V703z"/>
		<path class="st0" d="M833,703h-9.4v-11.9h9.4v2.4h-6.4v2.3h5v2.4h-5v2.5h6.4V703z"/>
		<path class="st0" d="M837.4,700.6h6.2v2.4h-9.3v-11.9h3.1V700.6z"/>
		<path class="st0" d="M860.7,699.7c0,1.2-0.3,2.1-0.8,2.6c-0.5,0.5-1.4,0.8-2.6,0.8H853c-1.2,0-2.1-0.3-2.6-0.8
			c-0.5-0.5-0.8-1.4-0.8-2.6v-5.4c0-1.2,0.3-2.1,0.8-2.6c0.5-0.5,1.4-0.8,2.6-0.8h4.3c1.2,0,2.1,0.3,2.6,0.8
			c0.5,0.5,0.8,1.4,0.8,2.6V699.7z M857.6,694.3c0-0.7-0.3-1-1-1h-2.9c-0.7,0-1,0.3-1,1v5.4c0,0.7,0.3,1,1,1h2.9c0.7,0,1-0.3,1-1
			V694.3z"/>
		<path class="st0" d="M870,691.1h3.1v8.7c0,1.2-0.3,2.1-0.8,2.6c-0.5,0.5-1.4,0.8-2.6,0.8h-3.9c-1.2,0-2.1-0.3-2.6-0.8
			c-0.5-0.5-0.8-1.4-0.8-2.6v-8.7h3.1v8.7c0,0.7,0.3,1,1,1h2.6c0.7,0,1-0.3,1-1V691.1z"/>
		<path class="st0" d="M875.1,691.1h7.1c1.2,0,2.1,0.3,2.6,0.8c0.5,0.5,0.8,1.4,0.8,2.6v1.5c0,0.9-0.2,1.7-0.5,2.2
			c-0.3,0.5-0.8,0.9-1.5,1l2.1,3.7h-3.3l-2-3.6h-2.4v3.6h-3.1V691.1z M882.6,694.5c0-0.7-0.3-1-1-1h-3.4v3.6h3.4c0.7,0,1-0.3,1-1
			V694.5z"/>
		<path class="st0" d="M901.6,702.8c-2.5,0.2-4.6,0.3-6.3,0.3c-1.1,0-1.9-0.3-2.4-0.8c-0.5-0.5-0.8-1.3-0.8-2.4v-5.4
			c0-1.2,0.3-2.1,0.8-2.6c0.5-0.5,1.4-0.8,2.6-0.8h6.1v2.4h-5.4c-0.7,0-1,0.3-1,1v5.4c0,0.3,0.1,0.5,0.2,0.6
			c0.2,0.2,0.3,0.2,0.6,0.2c0.2,0,0.5,0,0.8,0c0.3,0,0.6,0,0.9,0c0.3,0,0.6,0,0.9,0c0.3,0,0.7,0,1.2-0.1s1.1-0.1,1.8-0.1V702.8z"/>
		<path class="st0" d="M905.1,703h-3.3l4.5-11.9h3.4l4.5,11.9h-3.3l-0.8-2.1h-4.3L905.1,703z M906.6,698.6h2.7l-1.4-4L906.6,698.6z"
			/>
		<path class="st0" d="M915.1,691.1h7.1c1.2,0,2.1,0.3,2.6,0.8c0.5,0.5,0.8,1.4,0.8,2.6v1.5c0,0.9-0.2,1.7-0.5,2.2
			c-0.3,0.5-0.8,0.9-1.5,1l2.1,3.7h-3.3l-2-3.6h-2.4v3.6h-3.1V691.1z M922.5,694.5c0-0.7-0.3-1-1-1h-3.4v3.6h3.4c0.7,0,1-0.3,1-1
			V694.5z"/>
		<path class="st0" d="M936.7,703h-9.4v-11.9h9.4v2.4h-6.4v2.3h5v2.4h-5v2.5h6.4V703z"/>
		<path class="st0" d="M946.2,703h-3.1v-11.9h9.4v2.4h-6.4v2.8h5v2.4h-5V703z"/>
		<path class="st0" d="M964.5,699.7c0,1.2-0.3,2.1-0.8,2.6c-0.5,0.5-1.4,0.8-2.6,0.8h-4.3c-1.2,0-2.1-0.3-2.6-0.8
			c-0.5-0.5-0.8-1.4-0.8-2.6v-5.4c0-1.2,0.3-2.1,0.8-2.6c0.5-0.5,1.4-0.8,2.6-0.8h4.3c1.2,0,2.1,0.3,2.6,0.8
			c0.5,0.5,0.8,1.4,0.8,2.6V699.7z M961.5,694.3c0-0.7-0.3-1-1-1h-2.9c-0.7,0-1,0.3-1,1v5.4c0,0.7,0.3,1,1,1h2.9c0.7,0,1-0.3,1-1
			V694.3z"/>
		<path class="st0" d="M966.2,691.1h7.1c1.2,0,2.1,0.3,2.6,0.8c0.5,0.5,0.8,1.4,0.8,2.6v1.5c0,0.9-0.2,1.7-0.5,2.2
			c-0.3,0.5-0.8,0.9-1.5,1l2.1,3.7h-3.3l-2-3.6h-2.4v3.6h-3.1V691.1z M973.7,694.5c0-0.7-0.3-1-1-1h-3.4v3.6h3.4c0.7,0,1-0.3,1-1
			V694.5z"/>
		<path class="st0" d="M982.2,691.1h3.2l2.8,5.8l2.8-5.8h3.2l-4.5,8.8v3.1h-3.1v-3.1L982.2,691.1z"/>
		<path class="st0" d="M1005.7,699.7c0,1.2-0.3,2.1-0.8,2.6c-0.5,0.5-1.4,0.8-2.6,0.8H998c-1.2,0-2.1-0.3-2.6-0.8
			c-0.5-0.5-0.8-1.4-0.8-2.6v-5.4c0-1.2,0.3-2.1,0.8-2.6c0.5-0.5,1.4-0.8,2.6-0.8h4.3c1.2,0,2.1,0.3,2.6,0.8
			c0.5,0.5,0.8,1.4,0.8,2.6V699.7z M1002.6,694.3c0-0.7-0.3-1-1-1h-2.9c-0.7,0-1,0.3-1,1v5.4c0,0.7,0.3,1,1,1h2.9c0.7,0,1-0.3,1-1
			V694.3z"/>
		<path class="st0" d="M1015,691.1h3.1v8.7c0,1.2-0.3,2.1-0.8,2.6c-0.5,0.5-1.4,0.8-2.6,0.8h-3.9c-1.2,0-2.1-0.3-2.6-0.8
			c-0.5-0.5-0.8-1.4-0.8-2.6v-8.7h3.1v8.7c0,0.7,0.3,1,1,1h2.6c0.7,0,1-0.3,1-1V691.1z"/>
	</g>
</g>
<g id="text3">
	<g>
		<path class="st0" d="M23.2,660.6h-4.5l6.1-16.1h4.6l6.1,16.1H31l-1-2.9h-5.8L23.2,660.6z M25.3,654.8H29l-1.8-5.4L25.3,654.8z"/>
		<path class="st0" d="M47,644.5h4.1v11.7c0,1.6-0.4,2.8-1.1,3.5c-0.7,0.7-1.9,1.1-3.5,1.1h-5.3c-1.6,0-2.8-0.4-3.5-1.1
			c-0.7-0.7-1.1-1.9-1.1-3.5v-11.7h4.1v11.7c0,0.9,0.5,1.4,1.4,1.4h3.5c0.9,0,1.4-0.5,1.4-1.4V644.5z"/>
		<path class="st0" d="M61.7,660.6h-4.1v-12.9h-4.8v-3.2h13.8v3.2h-4.8V660.6z"/>
		<path class="st0" d="M82.7,656.3c0,1.6-0.4,2.8-1.1,3.5c-0.7,0.7-1.9,1.1-3.5,1.1h-5.8c-1.6,0-2.8-0.4-3.5-1.1
			c-0.7-0.7-1.1-1.9-1.1-3.5v-7.4c0-1.6,0.4-2.8,1.1-3.5c0.7-0.7,1.9-1.1,3.5-1.1h5.8c1.6,0,2.8,0.4,3.5,1.1
			c0.7,0.7,1.1,1.9,1.1,3.5V656.3z M78.5,648.9c0-0.9-0.5-1.4-1.4-1.4h-3.9c-0.9,0-1.4,0.5-1.4,1.4v7.4c0,0.9,0.5,1.4,1.4,1.4h3.9
			c0.9,0,1.4-0.5,1.4-1.4V648.9z"/>
		<path class="st0" d="M97.4,660.4c-3.4,0.3-6.3,0.5-8.5,0.5c-1.5,0-2.6-0.4-3.3-1.1c-0.7-0.7-1.1-1.8-1.1-3.3v-7.4
			c0-1.6,0.4-2.8,1.1-3.5c0.7-0.7,1.9-1.1,3.5-1.1h8.3v3.2H90c-0.9,0-1.4,0.5-1.4,1.4v7.4c0,0.4,0.1,0.6,0.3,0.8s0.5,0.3,0.8,0.3
			c0.3,0,0.7,0,1.1,0c0.4,0,0.8,0,1.2,0c0.4,0,0.8,0,1.3,0c0.4,0,1,0,1.6-0.1s1.5-0.1,2.5-0.2V660.4z"/>
		<path class="st0" d="M113.7,656.3c0,1.6-0.4,2.8-1.1,3.5c-0.7,0.7-1.9,1.1-3.5,1.1h-5.8c-1.6,0-2.8-0.4-3.5-1.1
			c-0.7-0.7-1.1-1.9-1.1-3.5v-7.4c0-1.6,0.4-2.8,1.1-3.5c0.7-0.7,1.9-1.1,3.5-1.1h5.8c1.6,0,2.8,0.4,3.5,1.1
			c0.7,0.7,1.1,1.9,1.1,3.5V656.3z M109.6,648.9c0-0.9-0.5-1.4-1.4-1.4h-3.9c-0.9,0-1.4,0.5-1.4,1.4v7.4c0,0.9,0.5,1.4,1.4,1.4h3.9
			c0.9,0,1.4-0.5,1.4-1.4V648.9z"/>
		<path class="st0" d="M129.8,651.7l-3.2,5.8h-3.2l-3.2-5.8v9H116v-16.1h4.4l4.6,8.5l4.6-8.5h4.4v16.1h-4.1V651.7z"/>
		<path class="st0" d="M136.7,644.5h9.7c1.6,0,2.8,0.4,3.5,1.1c0.7,0.7,1.1,1.9,1.1,3.5v2.3c0,1.6-0.4,2.8-1.1,3.5
			c-0.7,0.7-1.9,1.1-3.5,1.1h-5.5v4.6h-4.1V644.5z M146.8,649.1c0-0.9-0.5-1.4-1.4-1.4h-4.6v5.1h4.6c0.9,0,1.4-0.5,1.4-1.4V649.1z"
			/>
		<path class="st0" d="M157.2,657.4h8.4v3.2h-12.5v-16.1h4.1V657.4z"/>
		<path class="st0" d="M180,660.6h-12.8v-16.1H180v3.2h-8.6v3.1h6.8v3.2h-6.8v3.3h8.6V660.6z"/>
		<path class="st0" d="M189.6,660.6h-4.1v-12.9h-4.8v-3.2h13.8v3.2h-4.8V660.6z"/>
		<path class="st0" d="M208.8,660.6h-12.8v-16.1h12.8v3.2h-8.6v3.1h6.8v3.2h-6.8v3.3h8.6V660.6z"/>
		<path class="st0" d="M221.7,660.6h-4.1v-16.1h12.8v3.2h-8.6v3.8h6.8v3.2h-6.8V660.6z"/>
		<path class="st0" d="M239.5,660.6h-8.3v-3.2h2.1v-9.7h-2.1v-3.2h8.3v3.2h-2.1v9.7h2.1V660.6z"/>
		<path class="st0" d="M254.4,660.6h-12.8v-16.1h12.8v3.2h-8.6v3.1h6.8v3.2h-6.8v3.3h8.6V660.6z"/>
		<path class="st0" d="M260.4,657.4h8.4v3.2h-12.5v-16.1h4.1V657.4z"/>
		<path class="st0" d="M279.3,644.5c1.7,0,3,0.4,3.9,1.3c0.9,0.9,1.3,2.2,1.3,3.9v5.5c0,1.7-0.4,3-1.3,3.9c-0.9,0.9-2.2,1.3-3.9,1.3
			h-9v-16.1H279.3z M280.5,649.8c0-1.4-0.7-2.1-2.1-2.1h-3.9v9.7h3.9c1.4,0,2.1-0.7,2.1-2.1V649.8z"/>
		<path class="st0" d="M286.4,657.3c4.2,0.2,7,0.3,8.5,0.3c0.4,0,0.6-0.1,0.8-0.3s0.3-0.5,0.3-0.8v-2.1h-5.3c-1.6,0-2.8-0.4-3.5-1.1
			c-0.7-0.7-1.1-1.9-1.1-3.5v-0.7c0-1.6,0.4-2.8,1.1-3.5c0.7-0.7,1.9-1.1,3.5-1.1h8.1v3.2h-7.2c-0.9,0-1.4,0.5-1.4,1.4v0.5
			c0,0.9,0.5,1.4,1.4,1.4h4.1c1.5,0,2.6,0.4,3.3,1.1c0.7,0.7,1.1,1.8,1.1,3.3v1.2c0,1.5-0.4,2.6-1.1,3.3c-0.7,0.7-1.8,1.1-3.3,1.1
			c-0.8,0-1.6,0-2.5,0l-2.1-0.1c-1.6-0.1-3.2-0.2-4.9-0.3V657.3z"/>
		<path class="st0" d="M23.2,688.2h-4.5l6.1-16.1h4.6l6.1,16.1H31l-1-2.9h-5.8L23.2,688.2z M25.3,682.4H29l-1.8-5.4L25.3,682.4z"/>
		<path class="st0" d="M50.7,688.2h-4.4l-5.5-9.7v9.7h-4.1v-16.1H41l5.5,9.7v-9.7h4.1V688.2z"/>
		<path class="st0" d="M62.4,672.1c1.7,0,3,0.4,3.9,1.3c0.9,0.9,1.3,2.2,1.3,3.9v5.5c0,1.7-0.4,3-1.3,3.9c-0.9,0.9-2.2,1.3-3.9,1.3
			h-9v-16.1H62.4z M63.6,677.4c0-1.4-0.7-2.1-2.1-2.1h-3.9v9.7h3.9c1.4,0,2.1-0.7,2.1-2.1V677.4z"/>
		<path class="st0" d="M90.7,679.3l-3.2,5.8h-3.2l-3.2-5.8v9h-4.1v-16.1h4.4l4.6,8.5l4.6-8.5h4.4v16.1h-4.1V679.3z"/>
		<path class="st0" d="M112.1,683.9c0,1.6-0.4,2.8-1.1,3.5c-0.7,0.7-1.9,1.1-3.5,1.1h-5.8c-1.6,0-2.8-0.4-3.5-1.1
			c-0.7-0.7-1.1-1.9-1.1-3.5v-7.4c0-1.6,0.4-2.8,1.1-3.5c0.7-0.7,1.9-1.1,3.5-1.1h5.8c1.6,0,2.8,0.4,3.5,1.1
			c0.7,0.7,1.1,1.9,1.1,3.5V683.9z M108,676.5c0-0.9-0.5-1.4-1.4-1.4h-3.9c-0.9,0-1.4,0.5-1.4,1.4v7.4c0,0.9,0.5,1.4,1.4,1.4h3.9
			c0.9,0,1.4-0.5,1.4-1.4V676.5z"/>
		<path class="st0" d="M114.4,672.1h9.7c1.6,0,2.8,0.4,3.5,1.1c0.7,0.7,1.1,1.9,1.1,3.5v2.1c0,1.3-0.2,2.3-0.6,3s-1.1,1.2-2,1.4
			l2.9,5.1h-4.5l-2.6-4.8h-3.2v4.8h-4.1V672.1z M124.5,676.7c0-0.9-0.5-1.4-1.4-1.4h-4.6v4.8h4.6c0.9,0,1.4-0.5,1.4-1.4V676.7z"/>
		<path class="st0" d="M143.7,688.2H131v-16.1h12.8v3.2h-8.6v3.1h6.8v3.2h-6.8v3.3h8.6V688.2z"/>
		<path class="st0" d="M152,684.9c4.2,0.2,7,0.3,8.5,0.3c0.4,0,0.6-0.1,0.8-0.3s0.3-0.5,0.3-0.8V682h-5.3c-1.6,0-2.8-0.4-3.5-1.1
			c-0.7-0.7-1.1-1.9-1.1-3.5v-0.7c0-1.6,0.4-2.8,1.1-3.5c0.7-0.7,1.9-1.1,3.5-1.1h8.1v3.2h-7.2c-0.9,0-1.4,0.5-1.4,1.4v0.5
			c0,0.9,0.5,1.4,1.4,1.4h4.1c1.5,0,2.6,0.4,3.3,1.1c0.7,0.7,1.1,1.8,1.1,3.3v1.2c0,1.5-0.4,2.6-1.1,3.3c-0.7,0.7-1.8,1.1-3.3,1.1
			c-0.8,0-1.6,0-2.5,0l-2.1-0.1c-1.6-0.1-3.2-0.2-4.9-0.3V684.9z"/>
		<path class="st0" d="M175.7,688.2h-4.1v-12.9h-4.8v-3.2h13.8v3.2h-4.8V688.2z"/>
		<path class="st0" d="M185,688.2h-4.5l6.1-16.1h4.6l6.1,16.1h-4.5l-1-2.9h-5.8L185,688.2z M187.1,682.4h3.7l-1.8-5.4L187.1,682.4z"
			/>
		<path class="st0" d="M206.3,688.2h-4.1v-12.9h-4.8v-3.2h13.8v3.2h-4.8V688.2z"/>
		<path class="st0" d="M220.3,688.2h-8.3V685h2.1v-9.7h-2.1v-3.2h8.3v3.2h-2.1v9.7h2.1V688.2z"/>
		<path class="st0" d="M221.9,684.9c4.2,0.2,7,0.3,8.5,0.3c0.4,0,0.6-0.1,0.8-0.3s0.3-0.5,0.3-0.8V682h-5.3c-1.6,0-2.8-0.4-3.5-1.1
			c-0.7-0.7-1.1-1.9-1.1-3.5v-0.7c0-1.6,0.4-2.8,1.1-3.5c0.7-0.7,1.9-1.1,3.5-1.1h8.1v3.2h-7.2c-0.9,0-1.4,0.5-1.4,1.4v0.5
			c0,0.9,0.5,1.4,1.4,1.4h4.1c1.5,0,2.6,0.4,3.3,1.1c0.7,0.7,1.1,1.8,1.1,3.3v1.2c0,1.5-0.4,2.6-1.1,3.3c-0.7,0.7-1.8,1.1-3.3,1.1
			c-0.8,0-1.6,0-2.5,0l-2.1-0.1c-1.6-0.1-3.2-0.2-4.9-0.3V684.9z"/>
		<path class="st0" d="M245.6,688.2h-4.1v-12.9h-4.8v-3.2h13.8v3.2h-4.8V688.2z"/>
		<path class="st0" d="M259.7,688.2h-8.3V685h2.1v-9.7h-2.1v-3.2h8.3v3.2h-2.1v9.7h2.1V688.2z"/>
		<path class="st0" d="M274.2,688c-3.4,0.3-6.3,0.5-8.5,0.5c-1.5,0-2.6-0.4-3.3-1.1c-0.7-0.7-1.1-1.8-1.1-3.3v-7.4
			c0-1.6,0.4-2.8,1.1-3.5c0.7-0.7,1.9-1.1,3.5-1.1h8.3v3.2h-7.4c-0.9,0-1.4,0.5-1.4,1.4v7.4c0,0.4,0.1,0.6,0.3,0.8s0.5,0.3,0.8,0.3
			c0.3,0,0.7,0,1.1,0c0.4,0,0.8,0,1.2,0c0.4,0,0.8,0,1.3,0c0.4,0,1,0,1.6-0.1s1.5-0.1,2.5-0.2V688z"/>
		<path class="st0" d="M275.5,684.9c4.2,0.2,7,0.3,8.5,0.3c0.4,0,0.6-0.1,0.8-0.3s0.3-0.5,0.3-0.8V682h-5.3c-1.6,0-2.8-0.4-3.5-1.1
			c-0.7-0.7-1.1-1.9-1.1-3.5v-0.7c0-1.6,0.4-2.8,1.1-3.5c0.7-0.7,1.9-1.1,3.5-1.1h8.1v3.2h-7.2c-0.9,0-1.4,0.5-1.4,1.4v0.5
			c0,0.9,0.5,1.4,1.4,1.4h4.1c1.5,0,2.6,0.4,3.3,1.1c0.7,0.7,1.1,1.8,1.1,3.3v1.2c0,1.5-0.4,2.6-1.1,3.3c-0.7,0.7-1.8,1.1-3.3,1.1
			c-0.8,0-1.6,0-2.5,0l-2.1-0.1c-1.6-0.1-3.2-0.2-4.9-0.3V684.9z"/>
	</g>
	<g>
		<path class="st0" d="M26.9,720.1h2.7v7.7c0,1-0.2,1.8-0.7,2.3c-0.5,0.5-1.2,0.7-2.3,0.7h-3.5c-1,0-1.8-0.2-2.3-0.7
			s-0.7-1.2-0.7-2.3v-7.7h2.7v7.7c0,0.6,0.3,0.9,0.9,0.9H26c0.6,0,0.9-0.3,0.9-0.9V720.1z"/>
		<path class="st0" d="M31.1,728.4c2.7,0.1,4.6,0.2,5.6,0.2c0.2,0,0.4-0.1,0.5-0.2c0.1-0.1,0.2-0.3,0.2-0.5v-1.3h-3.4
			c-1.1,0-1.8-0.2-2.3-0.7c-0.5-0.5-0.7-1.2-0.7-2.3v-0.5c0-1,0.2-1.8,0.7-2.3c0.5-0.5,1.2-0.7,2.3-0.7h5.3v2.1h-4.7
			c-0.6,0-0.9,0.3-0.9,0.9v0.3c0,0.6,0.3,0.9,0.9,0.9h2.7c1,0,1.7,0.2,2.2,0.7c0.5,0.5,0.7,1.2,0.7,2.2v0.8c0,1-0.2,1.7-0.7,2.2
			c-0.5,0.5-1.2,0.7-2.2,0.7c-0.5,0-1,0-1.6,0l-1.4-0.1c-1,0-2.1-0.1-3.2-0.2V728.4z"/>
		<path class="st0" d="M49.8,730.6h-8.3v-10.5h8.3v2.1h-5.6v2h4.4v2.1h-4.4v2.2h5.6V730.6z"/>
		<path class="st0" d="M64.5,724.7l-2.1,3.8h-2.1l-2.1-3.8v5.8h-2.7v-10.5h2.9l3,5.5l3-5.5h2.9v10.5h-2.7V724.7z"/>
		<path class="st0" d="M78.4,727.7c0,1-0.2,1.8-0.7,2.3c-0.5,0.5-1.2,0.7-2.3,0.7h-3.8c-1.1,0-1.8-0.2-2.3-0.7
			c-0.5-0.5-0.7-1.2-0.7-2.3v-4.8c0-1,0.2-1.8,0.7-2.3c0.5-0.5,1.2-0.7,2.3-0.7h3.8c1,0,1.8,0.2,2.3,0.7c0.5,0.5,0.7,1.2,0.7,2.3
			V727.7z M75.7,722.9c0-0.6-0.3-0.9-0.9-0.9h-2.5c-0.6,0-0.9,0.3-0.9,0.9v4.8c0,0.6,0.3,0.9,0.9,0.9h2.5c0.6,0,0.9-0.3,0.9-0.9
			V722.9z"/>
		<path class="st0" d="M79.9,720.1h6.3c1,0,1.8,0.2,2.3,0.7c0.5,0.5,0.7,1.2,0.7,2.3v1.3c0,0.8-0.1,1.5-0.4,1.9
			c-0.3,0.5-0.7,0.8-1.3,0.9l1.9,3.3h-2.9l-1.7-3.2h-2.1v3.2h-2.7V720.1z M86.5,723.1c0-0.6-0.3-0.9-0.9-0.9h-3v3.2h3
			c0.6,0,0.9-0.3,0.9-0.9V723.1z"/>
		<path class="st0" d="M99,730.6h-8.3v-10.5H99v2.1h-5.6v2h4.4v2.1h-4.4v2.2H99V730.6z"/>
		<path class="st0" d="M109.7,730.6h-5.4v-2.1h1.3v-6.3h-1.3v-2.1h5.4v2.1h-1.4v6.3h1.4V730.6z"/>
		<path class="st0" d="M120.2,730.6h-2.8l-3.6-6.3v6.3H111v-10.5h2.9l3.6,6.3v-6.3h2.7V730.6z"/>
		<path class="st0" d="M124.7,730.6H122v-10.5h8.3v2.1h-5.6v2.5h4.4v2.1h-4.4V730.6z"/>
		<path class="st0" d="M140.8,727.7c0,1-0.2,1.8-0.7,2.3c-0.5,0.5-1.2,0.7-2.3,0.7h-3.8c-1.1,0-1.8-0.2-2.3-0.7
			c-0.5-0.5-0.7-1.2-0.7-2.3v-4.8c0-1,0.2-1.8,0.7-2.3c0.5-0.5,1.2-0.7,2.3-0.7h3.8c1,0,1.8,0.2,2.3,0.7c0.5,0.5,0.7,1.2,0.7,2.3
			V727.7z M138.1,722.9c0-0.6-0.3-0.9-0.9-0.9h-2.5c-0.6,0-0.9,0.3-0.9,0.9v4.8c0,0.6,0.3,0.9,0.9,0.9h2.5c0.6,0,0.9-0.3,0.9-0.9
			V722.9z"/>
		<path class="st0" d="M142.3,720.1h6.3c1,0,1.8,0.2,2.3,0.7c0.5,0.5,0.7,1.2,0.7,2.3v1.3c0,0.8-0.1,1.5-0.4,1.9
			c-0.3,0.5-0.7,0.8-1.3,0.9l1.9,3.3h-2.9l-1.7-3.2H145v3.2h-2.7V720.1z M148.9,723.1c0-0.6-0.3-0.9-0.9-0.9h-3v3.2h3
			c0.6,0,0.9-0.3,0.9-0.9V723.1z"/>
		<path class="st0" d="M162.1,724.7l-2.1,3.8h-2.1l-2.1-3.8v5.8h-2.7v-10.5h2.9l3,5.5l3-5.5h2.9v10.5h-2.7V724.7z"/>
		<path class="st0" d="M168.5,730.6h-2.9l4-10.5h3l4,10.5h-2.9l-0.7-1.9h-3.8L168.5,730.6z M169.8,726.8h2.4l-1.2-3.5L169.8,726.8z"
			/>
		<path class="st0" d="M182.4,730.6h-2.7v-8.4h-3.1v-2.1h9v2.1h-3.1V730.6z"/>
		<path class="st0" d="M191.5,730.6h-5.4v-2.1h1.3v-6.3h-1.3v-2.1h5.4v2.1h-1.4v6.3h1.4V730.6z"/>
		<path class="st0" d="M202.3,727.7c0,1-0.2,1.8-0.7,2.3c-0.5,0.5-1.2,0.7-2.3,0.7h-3.8c-1.1,0-1.8-0.2-2.3-0.7
			c-0.5-0.5-0.7-1.2-0.7-2.3v-4.8c0-1,0.2-1.8,0.7-2.3c0.5-0.5,1.2-0.7,2.3-0.7h3.8c1,0,1.8,0.2,2.3,0.7c0.5,0.5,0.7,1.2,0.7,2.3
			V727.7z M199.6,722.9c0-0.6-0.3-0.9-0.9-0.9h-2.5c-0.6,0-0.9,0.3-0.9,0.9v4.8c0,0.6,0.3,0.9,0.9,0.9h2.5c0.6,0,0.9-0.3,0.9-0.9
			V722.9z"/>
		<path class="st0" d="M213,730.6h-2.8l-3.6-6.3v6.3h-2.7v-10.5h2.9l3.6,6.3v-6.3h2.7V730.6z"/>
		<path class="st0" d="M221.1,730.6h-2.9l4-10.5h3l4,10.5h-2.9l-0.7-1.9h-3.8L221.1,730.6z M222.5,726.8h2.4l-1.2-3.5L222.5,726.8z"
			/>
		<path class="st0" d="M229.9,720.1h6c1,0,1.7,0.2,2.2,0.7c0.5,0.4,0.7,1.1,0.7,2c0,0.6-0.1,1.1-0.4,1.5s-0.6,0.6-1,0.8
			c0.8,0.2,1.4,0.8,1.6,1.6c0.1,0.3,0.2,0.7,0.2,1.1c0,1-0.2,1.7-0.7,2.2c-0.5,0.5-1.2,0.7-2.2,0.7h-6.5V720.1z M236.1,723.1
			c0-0.6-0.3-0.9-0.9-0.9h-2.5v2.1h2.5c0.6,0,0.9-0.3,0.9-0.9V723.1z M236.5,727.3c0-0.6-0.3-0.9-0.9-0.9h-3v2.1h3
			c0.6,0,0.9-0.3,0.9-0.9V727.3z"/>
		<path class="st0" d="M250,727.7c0,1-0.2,1.8-0.7,2.3c-0.5,0.5-1.2,0.7-2.3,0.7h-3.8c-1.1,0-1.8-0.2-2.3-0.7
			c-0.5-0.5-0.7-1.2-0.7-2.3v-4.8c0-1,0.2-1.8,0.7-2.3c0.5-0.5,1.2-0.7,2.3-0.7h3.8c1,0,1.8,0.2,2.3,0.7c0.5,0.5,0.7,1.2,0.7,2.3
			V727.7z M247.3,722.9c0-0.6-0.3-0.9-0.9-0.9h-2.5c-0.6,0-0.9,0.3-0.9,0.9v4.8c0,0.6,0.3,0.9,0.9,0.9h2.5c0.6,0,0.9-0.3,0.9-0.9
			V722.9z"/>
		<path class="st0" d="M258.3,720.1h2.7v7.7c0,1-0.2,1.8-0.7,2.3c-0.5,0.5-1.2,0.7-2.3,0.7h-3.5c-1,0-1.8-0.2-2.3-0.7
			s-0.7-1.2-0.7-2.3v-7.7h2.7v7.7c0,0.6,0.3,0.9,0.9,0.9h2.3c0.6,0,0.9-0.3,0.9-0.9V720.1z"/>
		<path class="st0" d="M267.9,730.6h-2.7v-8.4H262v-2.1h9v2.1h-3.1V730.6z"/>
		<path class="st0" d="M275.4,720.1h2.8l2.5,5.1l2.5-5.1h2.9l-4,7.7v2.8h-2.7v-2.8L275.4,720.1z"/>
		<path class="st0" d="M296.1,727.7c0,1-0.2,1.8-0.7,2.3c-0.5,0.5-1.2,0.7-2.3,0.7h-3.8c-1.1,0-1.8-0.2-2.3-0.7
			c-0.5-0.5-0.7-1.2-0.7-2.3v-4.8c0-1,0.2-1.8,0.7-2.3c0.5-0.5,1.2-0.7,2.3-0.7h3.8c1,0,1.8,0.2,2.3,0.7c0.5,0.5,0.7,1.2,0.7,2.3
			V727.7z M293.4,722.9c0-0.6-0.3-0.9-0.9-0.9h-2.5c-0.6,0-0.9,0.3-0.9,0.9v4.8c0,0.6,0.3,0.9,0.9,0.9h2.5c0.6,0,0.9-0.3,0.9-0.9
			V722.9z"/>
		<path class="st0" d="M304.3,720.1h2.7v7.7c0,1-0.2,1.8-0.7,2.3c-0.5,0.5-1.2,0.7-2.3,0.7h-3.5c-1,0-1.8-0.2-2.3-0.7
			s-0.7-1.2-0.7-2.3v-7.7h2.7v7.7c0,0.6,0.3,0.9,0.9,0.9h2.3c0.6,0,0.9-0.3,0.9-0.9V720.1z"/>
		<path class="st0" d="M308.8,720.1h6.3c1,0,1.8,0.2,2.3,0.7c0.5,0.5,0.7,1.2,0.7,2.3v1.3c0,0.8-0.1,1.5-0.4,1.9
			c-0.3,0.5-0.7,0.8-1.3,0.9l1.9,3.3h-2.9l-1.7-3.2h-2.1v3.2h-2.7V720.1z M315.4,723.1c0-0.6-0.3-0.9-0.9-0.9h-3v3.2h3
			c0.6,0,0.9-0.3,0.9-0.9V723.1z"/>
		<path class="st0" d="M324.1,720.1h6c1,0,1.7,0.2,2.2,0.7c0.5,0.4,0.7,1.1,0.7,2c0,0.6-0.1,1.1-0.4,1.5s-0.6,0.6-1,0.8
			c0.8,0.2,1.4,0.8,1.6,1.6c0.1,0.3,0.2,0.7,0.2,1.1c0,1-0.2,1.7-0.7,2.2c-0.5,0.5-1.2,0.7-2.2,0.7h-6.5V720.1z M330.3,723.1
			c0-0.6-0.3-0.9-0.9-0.9h-2.5v2.1h2.5c0.6,0,0.9-0.3,0.9-0.9V723.1z M330.7,727.3c0-0.6-0.3-0.9-0.9-0.9h-3v2.1h3
			c0.6,0,0.9-0.3,0.9-0.9V727.3z"/>
		<path class="st0" d="M343.1,730.6h-8.3v-10.5h8.3v2.1h-5.6v2h4.4v2.1h-4.4v2.2h5.6V730.6z"/>
		<path class="st0" d="M349.4,730.6h-2.7v-8.4h-3.1v-2.1h9v2.1h-3.1V730.6z"/>
		<path class="st0" d="M353.3,728.4c2.7,0.1,4.6,0.2,5.6,0.2c0.2,0,0.4-0.1,0.5-0.2c0.1-0.1,0.2-0.3,0.2-0.5v-1.3h-3.4
			c-1.1,0-1.8-0.2-2.3-0.7c-0.5-0.5-0.7-1.2-0.7-2.3v-0.5c0-1,0.2-1.8,0.7-2.3c0.5-0.5,1.2-0.7,2.3-0.7h5.3v2.1h-4.7
			c-0.6,0-0.9,0.3-0.9,0.9v0.3c0,0.6,0.3,0.9,0.9,0.9h2.7c1,0,1.7,0.2,2.2,0.7c0.5,0.5,0.7,1.2,0.7,2.2v0.8c0,1-0.2,1.7-0.7,2.2
			c-0.5,0.5-1.2,0.7-2.2,0.7c-0.5,0-1,0-1.6,0l-1.4-0.1c-1,0-2.1-0.1-3.2-0.2V728.4z"/>
	</g>
</g>
<g id="text2">
	<g>
		<path class="st1" d="M785.7,264.1c4.4,0.2,7.4,0.4,8.9,0.4c0.4,0,0.7-0.1,0.9-0.3c0.2-0.2,0.3-0.5,0.3-0.9v-2.2h-5.5
			c-1.7,0-2.9-0.4-3.7-1.1s-1.1-2-1.1-3.7v-0.7c0-1.7,0.4-2.9,1.1-3.7c0.8-0.8,2-1.1,3.7-1.1h8.4v3.4h-7.5c-1,0-1.4,0.5-1.4,1.4v0.5
			c0,1,0.5,1.4,1.4,1.4h4.3c1.6,0,2.7,0.4,3.5,1.1c0.7,0.7,1.1,1.9,1.1,3.5v1.2c0,1.6-0.4,2.7-1.1,3.5c-0.7,0.7-1.9,1.1-3.5,1.1
			c-0.8,0-1.7,0-2.6,0l-2.2-0.1c-1.6-0.1-3.3-0.2-5.1-0.3V264.1z"/>
		<path class="st1" d="M805.3,267.6h-4.7l6.4-16.8h4.8l6.4,16.8h-4.7l-1.1-3h-6L805.3,267.6z M807.5,261.5h3.8l-1.9-5.6L807.5,261.5
			z"/>
		<path class="st1" d="M826.4,262.6l4.1-11.8h4.7l-6.4,16.8H824l-6.4-16.8h4.7L826.4,262.6z"/>
		<path class="st1" d="M849.7,267.6h-13.3v-16.8h13.3v3.4h-9v3.2h7.1v3.4h-7.1v3.5h9V267.6z"/>
		<path class="st1" d="M856.9,250.8h4.6l4,8.2l4-8.2h4.6l-6.4,12.4v4.4h-4.3v-4.4L856.9,250.8z"/>
		<path class="st1" d="M890,263c0,1.7-0.4,2.9-1.1,3.7c-0.8,0.8-2,1.1-3.7,1.1h-6c-1.7,0-2.9-0.4-3.7-1.1c-0.8-0.8-1.1-2-1.1-3.7
			v-7.7c0-1.7,0.4-2.9,1.1-3.7c0.8-0.8,2-1.1,3.7-1.1h6c1.7,0,2.9,0.4,3.7,1.1c0.8,0.8,1.1,2,1.1,3.7V263z M885.7,255.4
			c0-1-0.5-1.4-1.4-1.4h-4.1c-1,0-1.4,0.5-1.4,1.4v7.7c0,1,0.5,1.4,1.4,1.4h4.1c1,0,1.4-0.5,1.4-1.4V255.4z"/>
		<path class="st1" d="M903.2,250.8h4.3V263c0,1.7-0.4,2.9-1.1,3.7c-0.8,0.8-2,1.1-3.7,1.1h-5.5c-1.7,0-2.9-0.4-3.7-1.1
			c-0.8-0.8-1.1-2-1.1-3.7v-12.2h4.3V263c0,1,0.5,1.4,1.4,1.4h3.6c1,0,1.4-0.5,1.4-1.4V250.8z"/>
		<path class="st1" d="M910.4,250.8h10.1c1.7,0,2.9,0.4,3.7,1.1c0.8,0.8,1.1,2,1.1,3.7v2.2c0,1.3-0.2,2.4-0.7,3.1
			c-0.4,0.7-1.1,1.2-2.1,1.5l3,5.3h-4.7l-2.8-5h-3.4v5h-4.3V250.8z M921,255.6c0-1-0.5-1.4-1.4-1.4h-4.8v5h4.8c1,0,1.4-0.5,1.4-1.4
			V255.6z"/>
		<path class="st1" d="M934.9,250.8h9.6c1.6,0,2.7,0.4,3.5,1.1c0.7,0.7,1.1,1.8,1.1,3.3c0,1-0.2,1.7-0.6,2.3c-0.4,0.6-0.9,1-1.5,1.3
			c1.3,0.4,2.2,1.2,2.6,2.6c0.2,0.5,0.2,1.1,0.2,1.7c0,1.6-0.4,2.7-1.1,3.5c-0.7,0.7-1.9,1.1-3.5,1.1h-10.3V250.8z M944.8,255.6
			c0-1-0.5-1.4-1.4-1.4h-4.1v3.4h4.1c1,0,1.4-0.5,1.4-1.4V255.6z M945.5,262.3c0-1-0.5-1.4-1.4-1.4h-4.8v3.4h4.8
			c1,0,1.4-0.5,1.4-1.4V262.3z"/>
		<path class="st1" d="M965.3,267.6H952v-16.8h13.3v3.4h-9v3.2h7.1v3.4h-7.1v3.5h9V267.6z"/>
		<path class="st1" d="M975.4,267.6H971v-13.4h-5v-3.4h14.4v3.4h-5V267.6z"/>
		<path class="st1" d="M981.6,264.1c4.4,0.2,7.4,0.4,8.9,0.4c0.4,0,0.7-0.1,0.9-0.3c0.2-0.2,0.3-0.5,0.3-0.9v-2.2h-5.5
			c-1.7,0-2.9-0.4-3.7-1.1s-1.1-2-1.1-3.7v-0.7c0-1.7,0.4-2.9,1.1-3.7c0.8-0.8,2-1.1,3.7-1.1h8.4v3.4h-7.5c-1,0-1.4,0.5-1.4,1.4v0.5
			c0,1,0.5,1.4,1.4,1.4h4.3c1.6,0,2.7,0.4,3.5,1.1c0.7,0.7,1.1,1.9,1.1,3.5v1.2c0,1.6-0.4,2.7-1.1,3.5c-0.7,0.7-1.9,1.1-3.5,1.1
			c-0.8,0-1.7,0-2.6,0l-2.2-0.1c-1.6-0.1-3.3-0.2-5.1-0.3V264.1z"/>
		<path class="st1" d="M1020,267.6h-4.3v-6.8h-6v6.8h-4.3v-16.8h4.3v6.6h6v-6.6h4.3V267.6z"/>
		<path class="st1" d="M1030.8,267.6h-8.6v-3.4h2.2v-10.1h-2.2v-3.4h8.6v3.4h-2.2v10.1h2.2V267.6z"/>
		<path class="st1" d="M1032.5,264.1c4.4,0.2,7.4,0.4,8.9,0.4c0.4,0,0.7-0.1,0.9-0.3c0.2-0.2,0.3-0.5,0.3-0.9v-2.2h-5.5
			c-1.7,0-2.9-0.4-3.7-1.1s-1.1-2-1.1-3.7v-0.7c0-1.7,0.4-2.9,1.1-3.7c0.8-0.8,2-1.1,3.7-1.1h8.4v3.4h-7.5c-1,0-1.4,0.5-1.4,1.4v0.5
			c0,1,0.5,1.4,1.4,1.4h4.3c1.6,0,2.7,0.4,3.5,1.1c0.7,0.7,1.1,1.9,1.1,3.5v1.2c0,1.6-0.4,2.7-1.1,3.5c-0.7,0.7-1.9,1.1-3.5,1.1
			c-0.8,0-1.7,0-2.6,0l-2.2-0.1c-1.6-0.1-3.3-0.2-5.1-0.3V264.1z"/>
		<path class="st1" d="M1057.2,267.6h-4.3v-13.4h-5v-3.4h14.4v3.4h-5V267.6z"/>
		<path class="st1" d="M1079,263c0,1.7-0.4,2.9-1.1,3.7c-0.8,0.8-2,1.1-3.7,1.1h-6c-1.7,0-2.9-0.4-3.7-1.1c-0.8-0.8-1.1-2-1.1-3.7
			v-7.7c0-1.7,0.4-2.9,1.1-3.7c0.8-0.8,2-1.1,3.7-1.1h6c1.7,0,2.9,0.4,3.7,1.1c0.8,0.8,1.1,2,1.1,3.7V263z M1074.7,255.4
			c0-1-0.5-1.4-1.4-1.4h-4.1c-1,0-1.4,0.5-1.4,1.4v7.7c0,1,0.5,1.4,1.4,1.4h4.1c1,0,1.4-0.5,1.4-1.4V255.4z"/>
		<path class="st1" d="M1081.4,250.8h10.1c1.7,0,2.9,0.4,3.7,1.1c0.8,0.8,1.1,2,1.1,3.7v2.2c0,1.3-0.2,2.4-0.7,3.1
			c-0.4,0.7-1.1,1.2-2.1,1.5l3,5.3h-4.7l-2.8-5h-3.4v5h-4.3V250.8z M1092,255.6c0-1-0.5-1.4-1.4-1.4h-4.8v5h4.8c1,0,1.4-0.5,1.4-1.4
			V255.6z"/>
		<path class="st1" d="M1096.8,250.8h4.6l4,8.2l4-8.2h4.6l-6.4,12.4v4.4h-4.3v-4.4L1096.8,250.8z"/>
	</g>
	<g>
		<g>
			<path class="st0" d="M786.8,299.1h-2.9l4-10.5h3l4,10.5h-2.9l-0.7-1.9h-3.8L786.8,299.1z M788.2,295.3h2.4l-1.2-3.5L788.2,295.3z
				"/>
			<path class="st0" d="M798.3,297h5.5v2.1h-8.2v-10.5h2.7V297z"/>
			<path class="st0" d="M807.5,297h5.5v2.1h-8.2v-10.5h2.7V297z"/>
			<path class="st0" d="M818.5,288.6h6c1,0,1.7,0.2,2.2,0.7c0.5,0.4,0.7,1.1,0.7,2c0,0.6-0.1,1.1-0.4,1.5c-0.3,0.4-0.6,0.6-1,0.8
				c0.8,0.2,1.4,0.8,1.6,1.6c0.1,0.3,0.2,0.7,0.2,1.1c0,1-0.2,1.7-0.7,2.2c-0.5,0.5-1.2,0.7-2.2,0.7h-6.4V288.6z M824.7,291.6
				c0-0.6-0.3-0.9-0.9-0.9h-2.6v2.1h2.6c0.6,0,0.9-0.3,0.9-0.9V291.6z M825.1,295.8c0-0.6-0.3-0.9-0.9-0.9h-3v2.1h3
				c0.6,0,0.9-0.3,0.9-0.9V295.8z"/>
			<path class="st0" d="M838.6,296.2c0,1-0.2,1.8-0.7,2.3c-0.5,0.5-1.2,0.7-2.3,0.7h-3.8c-1,0-1.8-0.2-2.3-0.7s-0.7-1.2-0.7-2.3
				v-4.8c0-1,0.2-1.8,0.7-2.3s1.2-0.7,2.3-0.7h3.8c1.1,0,1.8,0.2,2.3,0.7c0.5,0.5,0.7,1.2,0.7,2.3V296.2z M835.9,291.4
				c0-0.6-0.3-0.9-0.9-0.9h-2.5c-0.6,0-0.9,0.3-0.9,0.9v4.8c0,0.6,0.3,0.9,0.9,0.9h2.5c0.6,0,0.9-0.3,0.9-0.9V291.4z"/>
			<path class="st0" d="M849.6,296.2c0,1-0.2,1.8-0.7,2.3c-0.5,0.5-1.2,0.7-2.3,0.7h-3.8c-1,0-1.8-0.2-2.3-0.7s-0.7-1.2-0.7-2.3
				v-4.8c0-1,0.2-1.8,0.7-2.3s1.2-0.7,2.3-0.7h3.8c1.1,0,1.8,0.2,2.3,0.7c0.5,0.5,0.7,1.2,0.7,2.3V296.2z M846.9,291.4
				c0-0.6-0.3-0.9-0.9-0.9h-2.5c-0.6,0-0.9,0.3-0.9,0.9v4.8c0,0.6,0.3,0.9,0.9,0.9h2.5c0.6,0,0.9-0.3,0.9-0.9V291.4z"/>
			<path class="st0" d="M853.8,299.1h-2.7v-10.5h2.7v4.1h1.4l2.3-4.1h2.8l-2.9,5.2l2.9,5.3h-2.8l-2.3-4.3h-1.4V299.1z"/>
			<path class="st0" d="M870.2,293.2l-2.1,3.8H866l-2.1-3.8v5.8h-2.7v-10.5h2.8l3,5.5l3-5.5h2.8v10.5h-2.7V293.2z"/>
			<path class="st0" d="M876.6,299.1h-2.9l4-10.5h3l4,10.5h-2.9l-0.7-1.9h-3.8L876.6,299.1z M878,295.3h2.4l-1.2-3.5L878,295.3z"/>
			<path class="st0" d="M888.1,299.1h-2.7v-10.5h2.7v4.1h1.4l2.3-4.1h2.8l-2.9,5.2l2.9,5.3h-2.8l-2.3-4.3h-1.4V299.1z"/>
			<path class="st0" d="M903.9,299.1h-8.3v-10.5h8.3v2.1h-5.6v2h4.4v2.1h-4.4v2.2h5.6V299.1z"/>
			<path class="st0" d="M905.1,288.6h6.3c1,0,1.8,0.2,2.3,0.7c0.5,0.5,0.7,1.2,0.7,2.3v1.3c0,0.8-0.1,1.5-0.4,1.9
				c-0.3,0.5-0.7,0.8-1.3,0.9l1.9,3.3h-2.9l-1.7-3.2h-2.1v3.2h-2.7V288.6z M911.7,291.6c0-0.6-0.3-0.9-0.9-0.9h-3v3.2h3
				c0.6,0,0.9-0.3,0.9-0.9V291.6z"/>
			<path class="st0" d="M922.2,299.1h-2.9l4-10.5h3l4,10.5h-2.9l-0.7-1.9h-3.8L922.2,299.1z M923.6,295.3h2.4l-1.2-3.5L923.6,295.3z
				"/>
			<path class="st0" d="M939.1,298.9c-2.2,0.2-4.1,0.3-5.5,0.3c-1,0-1.7-0.2-2.2-0.7s-0.7-1.2-0.7-2.2v-4.8c0-1,0.2-1.8,0.7-2.3
				c0.5-0.5,1.2-0.7,2.3-0.7h5.4v2.1h-4.8c-0.6,0-0.9,0.3-0.9,0.9v4.8c0,0.2,0.1,0.4,0.2,0.5c0.1,0.1,0.3,0.2,0.5,0.2
				c0.2,0,0.4,0,0.7,0c0.3,0,0.5,0,0.8,0c0.3,0,0.5,0,0.8,0c0.3,0,0.6,0,1.1-0.1c0.4,0,1-0.1,1.6-0.1V298.9z"/>
			<path class="st0" d="M948.4,298.9c-2.2,0.2-4.1,0.3-5.5,0.3c-1,0-1.7-0.2-2.2-0.7s-0.7-1.2-0.7-2.2v-4.8c0-1,0.2-1.8,0.7-2.3
				c0.5-0.5,1.2-0.7,2.3-0.7h5.4v2.1h-4.8c-0.6,0-0.9,0.3-0.9,0.9v4.8c0,0.2,0.1,0.4,0.2,0.5c0.1,0.1,0.3,0.2,0.5,0.2
				c0.2,0,0.4,0,0.7,0c0.3,0,0.5,0,0.8,0c0.3,0,0.5,0,0.8,0c0.3,0,0.6,0,1.1-0.1c0.4,0,1-0.1,1.6-0.1V298.9z"/>
			<path class="st0" d="M959,296.2c0,1-0.2,1.8-0.7,2.3c-0.5,0.5-1.2,0.7-2.3,0.7h-3.8c-1,0-1.8-0.2-2.3-0.7s-0.7-1.2-0.7-2.3v-4.8
				c0-1,0.2-1.8,0.7-2.3s1.2-0.7,2.3-0.7h3.8c1.1,0,1.8,0.2,2.3,0.7c0.5,0.5,0.7,1.2,0.7,2.3V296.2z M956.4,291.4
				c0-0.6-0.3-0.9-0.9-0.9h-2.5c-0.6,0-0.9,0.3-0.9,0.9v4.8c0,0.6,0.3,0.9,0.9,0.9h2.5c0.6,0,0.9-0.3,0.9-0.9V291.4z"/>
			<path class="st0" d="M967.3,288.6h2.7v7.7c0,1-0.2,1.8-0.7,2.3c-0.5,0.5-1.2,0.7-2.3,0.7h-3.4c-1.1,0-1.8-0.2-2.3-0.7
				s-0.7-1.2-0.7-2.3v-7.7h2.7v7.7c0,0.6,0.3,0.9,0.9,0.9h2.3c0.6,0,0.9-0.3,0.9-0.9V288.6z"/>
			<path class="st0" d="M981,299.1h-2.8l-3.6-6.3v6.3h-2.7v-10.5h2.8l3.6,6.3v-6.3h2.7V299.1z"/>
			<path class="st0" d="M987.9,299.1h-2.7v-8.4H982v-2.1h9v2.1h-3.2V299.1z"/>
			<path class="st0" d="M991.7,296.9c2.7,0.1,4.6,0.2,5.6,0.2c0.2,0,0.4-0.1,0.5-0.2s0.2-0.3,0.2-0.5V295h-3.5c-1,0-1.8-0.2-2.3-0.7
				c-0.5-0.5-0.7-1.2-0.7-2.3v-0.5c0-1,0.2-1.8,0.7-2.3c0.5-0.5,1.2-0.7,2.3-0.7h5.3v2.1h-4.7c-0.6,0-0.9,0.3-0.9,0.9v0.3
				c0,0.6,0.3,0.9,0.9,0.9h2.7c1,0,1.7,0.2,2.2,0.7s0.7,1.2,0.7,2.2v0.8c0,1-0.2,1.7-0.7,2.2s-1.2,0.7-2.2,0.7c-0.5,0-1,0-1.6,0
				l-1.4-0.1c-1,0-2.1-0.1-3.2-0.2V296.9z"/>
			<path class="st0" d="M1011.5,299.1h-5.4V297h1.3v-6.3h-1.3v-2.1h5.4v2.1h-1.3v6.3h1.3V299.1z"/>
			<path class="st0" d="M1022,299.1h-2.8l-3.6-6.3v6.3h-2.7v-10.5h2.8l3.6,6.3v-6.3h2.7V299.1z"/>
			<path class="st0" d="M1037.8,296.2c0,1-0.2,1.8-0.7,2.3c-0.5,0.5-1.2,0.7-2.3,0.7h-3.8c-1,0-1.8-0.2-2.3-0.7s-0.7-1.2-0.7-2.3
				v-4.8c0-1,0.2-1.8,0.7-2.3s1.2-0.7,2.3-0.7h3.8c1.1,0,1.8,0.2,2.3,0.7c0.5,0.5,0.7,1.2,0.7,2.3V296.2z M1035.1,291.4
				c0-0.6-0.3-0.9-0.9-0.9h-2.5c-0.6,0-0.9,0.3-0.9,0.9v4.8c0,0.6,0.3,0.9,0.9,0.9h2.5c0.6,0,0.9-0.3,0.9-0.9V291.4z"/>
			<path class="st0" d="M1048.5,299.1h-2.8l-3.6-6.3v6.3h-2.7v-10.5h2.8l3.6,6.3v-6.3h2.7V299.1z"/>
			<path class="st0" d="M1058.6,299.1h-8.3v-10.5h8.3v2.1h-5.6v2h4.4v2.1h-4.4v2.2h5.6V299.1z"/>
			<path class="st0" d="M1064.3,288.6h6.3c1,0,1.8,0.2,2.3,0.7c0.5,0.5,0.7,1.2,0.7,2.3v1.5c0,1-0.2,1.8-0.7,2.3
				c-0.5,0.5-1.2,0.7-2.3,0.7h-3.6v3h-2.7V288.6z M1070.9,291.6c0-0.6-0.3-0.9-0.9-0.9h-3v3.3h3c0.6,0,0.9-0.3,0.9-0.9V291.6z"/>
			<path class="st0" d="M1077.6,297h5.5v2.1h-8.2v-10.5h2.7V297z"/>
			<path class="st0" d="M1086,299.1h-2.9l4-10.5h3l4,10.5h-2.9l-0.7-1.9h-3.8L1086,299.1z M1087.4,295.3h2.4l-1.2-3.5L1087.4,295.3z
				"/>
			<path class="st0" d="M1102.9,298.9c-2.2,0.2-4.1,0.3-5.5,0.3c-1,0-1.7-0.2-2.2-0.7s-0.7-1.2-0.7-2.2v-4.8c0-1,0.2-1.8,0.7-2.3
				c0.5-0.5,1.2-0.7,2.3-0.7h5.4v2.1h-4.8c-0.6,0-0.9,0.3-0.9,0.9v4.8c0,0.2,0.1,0.4,0.2,0.5c0.1,0.1,0.3,0.2,0.5,0.2
				c0.2,0,0.4,0,0.7,0c0.3,0,0.5,0,0.8,0c0.3,0,0.5,0,0.8,0c0.3,0,0.6,0,1.1-0.1c0.4,0,1-0.1,1.6-0.1V298.9z"/>
			<path class="st0" d="M1112.4,299.1h-8.3v-10.5h8.3v2.1h-5.6v2h4.4v2.1h-4.4v2.2h5.6V299.1z"/>
		</g>
	</g>
</g>
<g id="text1">
	<g>
		<path class="st0" d="M26.5,349.5h2.7v7.7c0,1-0.2,1.8-0.7,2.3c-0.5,0.5-1.2,0.7-2.3,0.7h-3.5c-1,0-1.8-0.2-2.3-0.7
			s-0.7-1.2-0.7-2.3v-7.7h2.7v7.7c0,0.6,0.3,0.9,0.9,0.9h2.3c0.6,0,0.9-0.3,0.9-0.9V349.5z"/>
		<path class="st0" d="M30.7,357.9c2.7,0.1,4.6,0.2,5.6,0.2c0.2,0,0.4-0.1,0.5-0.2c0.1-0.1,0.2-0.3,0.2-0.5V356h-3.4
			c-1.1,0-1.8-0.2-2.3-0.7c-0.5-0.5-0.7-1.2-0.7-2.3v-0.5c0-1,0.2-1.8,0.7-2.3c0.5-0.5,1.2-0.7,2.3-0.7h5.3v2.1h-4.7
			c-0.6,0-0.9,0.3-0.9,0.9v0.3c0,0.6,0.3,0.9,0.9,0.9h2.7c1,0,1.7,0.2,2.2,0.7c0.5,0.5,0.7,1.2,0.7,2.2v0.8c0,1-0.2,1.7-0.7,2.2
			c-0.5,0.5-1.2,0.7-2.2,0.7c-0.5,0-1,0-1.6,0l-1.4-0.1c-1,0-2.1-0.1-3.2-0.2V357.9z"/>
		<path class="st0" d="M49.4,360h-8.3v-10.5h8.3v2.1h-5.6v2h4.4v2.1h-4.4v2.2h5.6V360z"/>
		<path class="st0" d="M64.5,357.2c0,1-0.2,1.8-0.7,2.3c-0.5,0.5-1.2,0.7-2.3,0.7h-3.8c-1.1,0-1.8-0.2-2.3-0.7
			c-0.5-0.5-0.7-1.2-0.7-2.3v-4.8c0-1,0.2-1.8,0.7-2.3c0.5-0.5,1.2-0.7,2.3-0.7h3.8c1,0,1.8,0.2,2.3,0.7c0.5,0.5,0.7,1.2,0.7,2.3
			V357.2z M61.8,352.4c0-0.6-0.3-0.9-0.9-0.9h-2.5c-0.6,0-0.9,0.3-0.9,0.9v4.8c0,0.6,0.3,0.9,0.9,0.9h2.5c0.6,0,0.9-0.3,0.9-0.9
			V352.4z"/>
		<path class="st0" d="M72.8,349.5h2.7v7.7c0,1-0.2,1.8-0.7,2.3c-0.5,0.5-1.2,0.7-2.3,0.7H69c-1,0-1.8-0.2-2.3-0.7s-0.7-1.2-0.7-2.3
			v-7.7h2.7v7.7c0,0.6,0.3,0.9,0.9,0.9h2.3c0.6,0,0.9-0.3,0.9-0.9V349.5z"/>
		<path class="st0" d="M77.3,349.5h6.3c1,0,1.8,0.2,2.3,0.7c0.5,0.5,0.7,1.2,0.7,2.3v1.3c0,0.8-0.1,1.5-0.4,1.9
			c-0.3,0.5-0.7,0.8-1.3,0.9l1.9,3.3h-2.9l-1.7-3.2H80v3.2h-2.7V349.5z M83.9,352.5c0-0.6-0.3-0.9-0.9-0.9h-3v3.2h3
			c0.6,0,0.9-0.3,0.9-0.9V352.5z"/>
		<path class="st0" d="M92.6,349.5h6c1,0,1.7,0.2,2.2,0.7c0.5,0.4,0.7,1.1,0.7,2c0,0.6-0.1,1.1-0.4,1.5s-0.6,0.6-1,0.8
			c0.8,0.2,1.4,0.8,1.6,1.6c0.1,0.3,0.2,0.7,0.2,1.1c0,1-0.2,1.7-0.7,2.2c-0.5,0.5-1.2,0.7-2.2,0.7h-6.5V349.5z M98.7,352.5
			c0-0.6-0.3-0.9-0.9-0.9h-2.5v2.1h2.5c0.6,0,0.9-0.3,0.9-0.9V352.5z M99.2,356.7c0-0.6-0.3-0.9-0.9-0.9h-3v2.1h3
			c0.6,0,0.9-0.3,0.9-0.9V356.7z"/>
		<path class="st0" d="M111.6,360h-8.3v-10.5h8.3v2.1h-5.6v2h4.4v2.1h-4.4v2.2h5.6V360z"/>
		<path class="st0" d="M117.9,360h-2.7v-8.4H112v-2.1h9v2.1h-3.1V360z"/>
		<path class="st0" d="M127.2,360h-2.7v-8.4h-3.1v-2.1h9v2.1h-3.1V360z"/>
		<path class="st0" d="M136.3,360h-5.4v-2.1h1.3v-6.3h-1.3v-2.1h5.4v2.1H135v6.3h1.4V360z"/>
		<path class="st0" d="M146.8,360H144l-3.6-6.3v6.3h-2.7v-10.5h2.9l3.6,6.3v-6.3h2.7V360z"/>
		<path class="st0" d="M157.6,359.8c-2.3,0.2-4.5,0.4-6.4,0.4c-1,0-1.7-0.2-2.2-0.7s-0.7-1.2-0.7-2.2v-4.8c0-1,0.2-1.8,0.7-2.3
			c0.5-0.5,1.2-0.7,2.3-0.7h5.4v2.1h-4.8c-0.6,0-0.9,0.3-0.9,0.9v4.8c0,0.2,0.1,0.4,0.2,0.5c0.1,0.1,0.3,0.2,0.5,0.2
			c1.1,0,2.2,0,3.2-0.1v-2.2h-2V354h4.6V359.8z"/>
		<path class="st0" d="M168.7,360H166v-8.4h-3.1v-2.1h9v2.1h-3.1V360z"/>
		<path class="st0" d="M182.4,357.2c0,1-0.2,1.8-0.7,2.3c-0.5,0.5-1.2,0.7-2.3,0.7h-3.8c-1.1,0-1.8-0.2-2.3-0.7
			c-0.5-0.5-0.7-1.2-0.7-2.3v-4.8c0-1,0.2-1.8,0.7-2.3c0.5-0.5,1.2-0.7,2.3-0.7h3.8c1,0,1.8,0.2,2.3,0.7c0.5,0.5,0.7,1.2,0.7,2.3
			V357.2z M179.7,352.4c0-0.6-0.3-0.9-0.9-0.9h-2.5c-0.6,0-0.9,0.3-0.9,0.9v4.8c0,0.6,0.3,0.9,0.9,0.9h2.5c0.6,0,0.9-0.3,0.9-0.9
			V352.4z"/>
		<path class="st0" d="M193.3,357.2c0,1-0.2,1.8-0.7,2.3c-0.5,0.5-1.2,0.7-2.3,0.7h-3.8c-1.1,0-1.8-0.2-2.3-0.7
			c-0.5-0.5-0.7-1.2-0.7-2.3v-4.8c0-1,0.2-1.8,0.7-2.3c0.5-0.5,1.2-0.7,2.3-0.7h3.8c1,0,1.8,0.2,2.3,0.7c0.5,0.5,0.7,1.2,0.7,2.3
			V357.2z M190.6,352.4c0-0.6-0.3-0.9-0.9-0.9h-2.5c-0.6,0-0.9,0.3-0.9,0.9v4.8c0,0.6,0.3,0.9,0.9,0.9h2.5c0.6,0,0.9-0.3,0.9-0.9
			V352.4z"/>
		<path class="st0" d="M197.5,357.9h5.5v2.1h-8.2v-10.5h2.7V357.9z"/>
		<path class="st0" d="M203.7,357.9c2.7,0.1,4.6,0.2,5.6,0.2c0.2,0,0.4-0.1,0.5-0.2c0.1-0.1,0.2-0.3,0.2-0.5V356h-3.4
			c-1.1,0-1.8-0.2-2.3-0.7c-0.5-0.5-0.7-1.2-0.7-2.3v-0.5c0-1,0.2-1.8,0.7-2.3c0.5-0.5,1.2-0.7,2.3-0.7h5.3v2.1h-4.7
			c-0.6,0-0.9,0.3-0.9,0.9v0.3c0,0.6,0.3,0.9,0.9,0.9h2.7c1,0,1.7,0.2,2.2,0.7c0.5,0.5,0.7,1.2,0.7,2.2v0.8c0,1-0.2,1.7-0.7,2.2
			c-0.5,0.5-1.2,0.7-2.2,0.7c-0.5,0-1,0-1.6,0l-1.4-0.1c-1,0-2.1-0.1-3.2-0.2V357.9z"/>
	</g>
	<g>
		<path class="st1" d="M23.4,293.3h-4.5l6.1-16.1h4.6l6.1,16.1h-4.5l-1-2.9h-5.8L23.4,293.3z M25.5,287.4h3.7l-1.8-5.4L25.5,287.4z"
			/>
		<path class="st1" d="M50.9,293.3h-4.4l-5.5-9.7v9.7h-4.1v-16.1h4.4l5.5,9.7v-9.7h4.1V293.3z"/>
		<path class="st1" d="M56.5,293.3H52l6.1-16.1h4.6l6.1,16.1h-4.5l-1-2.9h-5.8L56.5,293.3z M58.6,287.4h3.7l-1.8-5.4L58.6,287.4z"/>
		<path class="st1" d="M74.1,290.1h8.4v3.2H70v-16.1h4.1V290.1z"/>
		<path class="st1" d="M82.3,277.2h4.4l3.8,7.8l3.8-7.8h4.4L92.5,289v4.3h-4.1V289L82.3,277.2z"/>
		<path class="st1" d="M111.7,280.4l-8.1,9.7h8.1v3.2H98.6v-3.2l8-9.7h-8v-3.2h13.1V280.4z"/>
		<path class="st1" d="M126.3,293.3h-12.8v-16.1h12.8v3.2h-8.6v3.1h6.8v3.2h-6.8v3.3h8.6V293.3z"/>
		<path class="st1" d="M133.2,277.2h4.4l3.8,7.8l3.8-7.8h4.4l-6.1,11.8v4.3h-4.1V289L133.2,277.2z"/>
		<path class="st1" d="M164.9,288.9c0,1.6-0.4,2.8-1.1,3.5s-1.9,1.1-3.5,1.1h-5.8c-1.6,0-2.8-0.4-3.5-1.1c-0.7-0.7-1.1-1.9-1.1-3.5
			v-7.4c0-1.6,0.4-2.8,1.1-3.5c0.7-0.7,1.9-1.1,3.5-1.1h5.8c1.6,0,2.8,0.4,3.5,1.1s1.1,1.9,1.1,3.5V288.9z M160.8,281.6
			c0-0.9-0.5-1.4-1.4-1.4h-3.9c-0.9,0-1.4,0.5-1.4,1.4v7.4c0,0.9,0.5,1.4,1.4,1.4h3.9c0.9,0,1.4-0.5,1.4-1.4V281.6z"/>
		<path class="st1" d="M177.6,277.2h4.1v11.7c0,1.6-0.4,2.8-1.1,3.5s-1.9,1.1-3.5,1.1h-5.3c-1.6,0-2.8-0.4-3.5-1.1
			c-0.7-0.7-1.1-1.9-1.1-3.5v-11.7h4.1v11.7c0,0.9,0.5,1.4,1.4,1.4h3.4c0.9,0,1.4-0.5,1.4-1.4V277.2z"/>
		<path class="st1" d="M184.5,277.2h9.7c1.6,0,2.8,0.4,3.5,1.1c0.7,0.7,1.1,1.9,1.1,3.5v2.1c0,1.3-0.2,2.3-0.6,3
			c-0.4,0.7-1.1,1.2-2,1.4l2.9,5.1h-4.5l-2.6-4.8h-3.2v4.8h-4.1V277.2z M194.6,281.8c0-0.9-0.5-1.4-1.4-1.4h-4.6v4.8h4.6
			c0.9,0,1.4-0.5,1.4-1.4V281.8z"/>
		<path class="st1" d="M208,277.2h9.2c1.5,0,2.6,0.3,3.3,1c0.7,0.7,1.1,1.7,1.1,3.1c0,0.9-0.2,1.7-0.6,2.2c-0.4,0.6-0.9,1-1.5,1.2
			c1.2,0.3,2.1,1.2,2.5,2.5c0.2,0.5,0.2,1,0.2,1.7c0,1.5-0.4,2.6-1.1,3.3s-1.8,1.1-3.3,1.1H208V277.2z M217.4,281.8
			c0-0.9-0.5-1.4-1.4-1.4h-3.9v3.2h3.9c0.9,0,1.4-0.5,1.4-1.4V281.8z M218.1,288.2c0-0.9-0.5-1.4-1.4-1.4h-4.6v3.2h4.6
			c0.9,0,1.4-0.5,1.4-1.4V288.2z"/>
		<path class="st1" d="M237,293.3h-12.8v-16.1H237v3.2h-8.6v3.1h6.8v3.2h-6.8v3.3h8.6V293.3z"/>
		<path class="st1" d="M246.7,293.3h-4.1v-12.9h-4.8v-3.2h13.8v3.2h-4.8V293.3z"/>
		<path class="st1" d="M252.7,290c4.2,0.2,7,0.3,8.5,0.3c0.4,0,0.6-0.1,0.8-0.3s0.3-0.5,0.3-0.8v-2.1h-5.3c-1.6,0-2.8-0.4-3.5-1.1
			c-0.7-0.7-1.1-1.9-1.1-3.5v-0.7c0-1.6,0.4-2.8,1.1-3.5c0.7-0.7,1.9-1.1,3.5-1.1h8.1v3.2H258c-0.9,0-1.4,0.5-1.4,1.4v0.5
			c0,0.9,0.5,1.4,1.4,1.4h4.1c1.5,0,2.6,0.4,3.3,1.1s1.1,1.8,1.1,3.3v1.2c0,1.5-0.4,2.6-1.1,3.3c-0.7,0.7-1.8,1.1-3.3,1.1
			c-0.8,0-1.6,0-2.5,0l-2.1-0.1c-1.6-0.1-3.2-0.2-4.9-0.3V290z"/>
		<path class="st1" d="M23.4,320.9h-4.5l6.1-16.1h4.6l6.1,16.1h-4.5l-1-2.9h-5.8L23.4,320.9z M25.5,315h3.7l-1.8-5.4L25.5,315z"/>
		<path class="st1" d="M50.9,320.9h-4.4l-5.5-9.7v9.7h-4.1v-16.1h4.4l5.5,9.7v-9.7h4.1V320.9z"/>
		<path class="st1" d="M62.6,304.8c1.7,0,3,0.4,3.9,1.3c0.9,0.9,1.3,2.2,1.3,3.9v5.5c0,1.7-0.4,3-1.3,3.9c-0.9,0.9-2.2,1.3-3.9,1.3
			h-9v-16.1H62.6z M63.7,310.1c0-1.4-0.7-2.1-2.1-2.1h-3.9v9.7h3.9c1.4,0,2.1-0.7,2.1-2.1V310.1z"/>
		<path class="st1" d="M84.7,320.9h-8.3v-3.2h2.1V308h-2.1v-3.2h8.3v3.2h-2.1v9.7h2.1V320.9z"/>
		<path class="st1" d="M100.5,311.9l-3.2,5.8h-3.2l-3.2-5.8v9h-4.1v-16.1h4.4l4.6,8.5l4.6-8.5h4.4v16.1h-4.1V311.9z"/>
		<path class="st1" d="M107.4,304.8h9.7c1.6,0,2.8,0.4,3.5,1.1c0.7,0.7,1.1,1.9,1.1,3.5v2.3c0,1.6-0.4,2.8-1.1,3.5
			c-0.7,0.7-1.9,1.1-3.5,1.1h-5.5v4.6h-4.1V304.8z M117.6,309.4c0-0.9-0.5-1.4-1.4-1.4h-4.6v5.1h4.6c0.9,0,1.4-0.5,1.4-1.4V309.4z"
			/>
		<path class="st1" d="M123.8,304.8h9.7c1.6,0,2.8,0.4,3.5,1.1c0.7,0.7,1.1,1.9,1.1,3.5v2.1c0,1.3-0.2,2.3-0.6,3
			c-0.4,0.7-1.1,1.2-2,1.4l2.9,5.1h-4.5l-2.6-4.8h-3.2v4.8h-4.1V304.8z M133.9,309.4c0-0.9-0.5-1.4-1.4-1.4h-4.6v4.8h4.6
			c0.9,0,1.4-0.5,1.4-1.4V309.4z"/>
		<path class="st1" d="M154.8,316.5c0,1.6-0.4,2.8-1.1,3.5s-1.9,1.1-3.5,1.1h-5.8c-1.6,0-2.8-0.4-3.5-1.1c-0.7-0.7-1.1-1.9-1.1-3.5
			v-7.4c0-1.6,0.4-2.8,1.1-3.5c0.7-0.7,1.9-1.1,3.5-1.1h5.8c1.6,0,2.8,0.4,3.5,1.1s1.1,1.9,1.1,3.5V316.5z M150.7,309.2
			c0-0.9-0.5-1.4-1.4-1.4h-3.9c-0.9,0-1.4,0.5-1.4,1.4v7.4c0,0.9,0.5,1.4,1.4,1.4h3.9c0.9,0,1.4-0.5,1.4-1.4V309.2z"/>
		<path class="st1" d="M163.9,316.1l3.9-11.3h4.5l-6.1,16.1h-4.6l-6.1-16.1h4.5L163.9,316.1z"/>
		<path class="st1" d="M186.2,320.9h-12.8v-16.1h12.8v3.2h-8.6v3.1h6.8v3.2h-6.8v3.3h8.6V320.9z"/>
		<path class="st1" d="M193.1,304.8h4.4l3.8,7.8l3.8-7.8h4.4l-6.1,11.8v4.3h-4.1v-4.3L193.1,304.8z"/>
		<path class="st1" d="M224.9,316.5c0,1.6-0.4,2.8-1.1,3.5s-1.9,1.1-3.5,1.1h-5.8c-1.6,0-2.8-0.4-3.5-1.1c-0.7-0.7-1.1-1.9-1.1-3.5
			v-7.4c0-1.6,0.4-2.8,1.1-3.5c0.7-0.7,1.9-1.1,3.5-1.1h5.8c1.6,0,2.8,0.4,3.5,1.1s1.1,1.9,1.1,3.5V316.5z M220.7,309.2
			c0-0.9-0.5-1.4-1.4-1.4h-3.9c-0.9,0-1.4,0.5-1.4,1.4v7.4c0,0.9,0.5,1.4,1.4,1.4h3.9c0.9,0,1.4-0.5,1.4-1.4V309.2z"/>
		<path class="st1" d="M237.5,304.8h4.1v11.7c0,1.6-0.4,2.8-1.1,3.5s-1.9,1.1-3.5,1.1h-5.3c-1.6,0-2.8-0.4-3.5-1.1
			c-0.7-0.7-1.1-1.9-1.1-3.5v-11.7h4.1v11.7c0,0.9,0.5,1.4,1.4,1.4h3.4c0.9,0,1.4-0.5,1.4-1.4V304.8z"/>
		<path class="st1" d="M244.4,304.8h9.7c1.6,0,2.8,0.4,3.5,1.1c0.7,0.7,1.1,1.9,1.1,3.5v2.1c0,1.3-0.2,2.3-0.6,3
			c-0.4,0.7-1.1,1.2-2,1.4l2.9,5.1h-4.5l-2.6-4.8h-3.2v4.8h-4.1V304.8z M254.5,309.4c0-0.9-0.5-1.4-1.4-1.4h-4.6v4.8h4.6
			c0.9,0,1.4-0.5,1.4-1.4V309.4z"/>
		<path class="st1" d="M281.7,320.6c-3.6,0.4-6.9,0.6-9.9,0.6c-1.5,0-2.6-0.4-3.3-1.1c-0.7-0.7-1.1-1.8-1.1-3.3v-7.4
			c0-1.6,0.4-2.8,1.1-3.5c0.7-0.7,1.9-1.1,3.5-1.1h8.3v3.2h-7.4c-0.9,0-1.4,0.5-1.4,1.4v7.4c0,0.4,0.1,0.6,0.3,0.8s0.5,0.3,0.8,0.3
			c1.8,0,3.4,0,4.8-0.1v-3.3h-3v-2.8h7.1V320.6z"/>
		<path class="st1" d="M286.8,320.9h-4.5l6.1-16.1h4.6l6.1,16.1h-4.5l-1-2.9h-5.8L286.8,320.9z M288.9,315h3.7l-1.8-5.4L288.9,315z"
			/>
		<path class="st1" d="M314.1,311.9l-3.2,5.8h-3.2l-3.2-5.8v9h-4.1v-16.1h4.4l4.6,8.5l4.6-8.5h4.4v16.1h-4.1V311.9z"/>
		<path class="st1" d="M333.8,320.9H321v-16.1h12.8v3.2h-8.6v3.1h6.8v3.2h-6.8v3.3h8.6V320.9z"/>
	</g>
</g>
</svg>
